<?xml version="1.0" encoding="utf-8"?>
<!-- Generator: Adobe Illustrator 23.0.1, SVG Export Plug-In . SVG Version: 6.00 Build 0)  -->
<svg version="1.1" id="レイヤー_1" xmlns="http://www.w3.org/2000/svg" xmlns:xlink="http://www.w3.org/1999/xlink" x="0px"
	 y="0px" viewBox="0 0 100 100" style="enable-background:new 0 0 100 100;" xml:space="preserve">
<style type="text/css">
	.st0{fill-rule:evenodd;clip-rule:evenodd;fill:#3AAE36;}
	.st1{fill-rule:evenodd;clip-rule:evenodd;fill:#FFFFFF;}
</style>
<g>
	<g id="Rounded_Rectangle_98_">
		<g>
			<path class="st0" d="M81.8,0H18.3C8.2,0,0,8.2,0,18.3v63.3C0,91.8,8.2,100,18.3,100h63.4c10.1,0,18.3-8.2,18.3-18.3V18.3
				C100.1,8.2,91.9,0,81.8,0z"/>
		</g>
	</g>
	<g id="LINE_114_">
		<g>
			<path class="st1" d="M86.5,46.6c0-16.3-16.3-29.5-36.4-29.5S13.6,30.3,13.6,46.6c0,14.6,12.9,26.8,30.4,29.1
				c1.2,0.3,2.8,0.8,3.2,1.8c0.4,0.9,0.2,2.4,0.1,3.3c0,0-0.4,2.6-0.5,3.1c-0.2,0.9-0.7,3.6,3.2,2C54,84.3,71,73.6,78.7,64.8l0,0
				C83.9,59,86.5,53.1,86.5,46.6z M35.8,56.3h-7.2c-1.1,0-1.9-0.9-1.9-1.9V39.9c0-1.1,0.9-1.9,1.9-1.9c1.1,0,1.9,0.9,1.9,1.9v12.5
				h5.3c1.1,0,1.9,0.9,1.9,1.9C37.7,55.4,36.8,56.3,35.8,56.3z M43.2,54.4c0,1.1-0.9,1.9-1.9,1.9c-1.1,0-1.9-0.9-1.9-1.9V39.9
				c0-1.1,0.9-1.9,1.9-1.9c1.1,0,1.9,0.9,1.9,1.9V54.4z M60.7,54.4c0,0.8-0.5,1.6-1.3,1.8c-0.2,0.1-0.4,0.1-0.6,0.1
				c-0.6,0-1.2-0.3-1.5-0.8l-7.4-10.1v8.9c0,1.1-0.9,1.9-1.9,1.9c-1.1,0-1.9-0.9-1.9-1.9V39.9c0-0.8,0.5-1.5,1.3-1.8
				c0.2-0.1,0.4-0.1,0.6-0.1c0.6,0,1.2,0.3,1.5,0.8l7.4,10.1V40c0-1.1,0.9-1.9,1.9-1.9c1.1,0,1.9,0.9,1.9,1.9V54.4z M72.4,45.2
				c1.1,0,1.9,0.9,1.9,1.9c0,1.1-0.9,1.9-1.9,1.9h-5.3v3.4h5.3c1.1,0,1.9,0.9,1.9,1.9c0,1.1-0.9,1.9-1.9,1.9h-7.2
				c-1.1,0-1.9-0.9-1.9-1.9v-7.2l0,0v-7.2c0-1.1,0.9-1.9,1.9-1.9h7.2c1.1,0,1.9,0.9,1.9,1.9c0,1.1-0.9,1.9-1.9,1.9h-5.3v3.4
				C67.1,45.2,72.4,45.2,72.4,45.2z"/>
		</g>
	</g>
</g>
</svg>
