<svg width="209" height="91" viewBox="0 0 209 91" fill="none" xmlns="http://www.w3.org/2000/svg">
<g id="logo">
<g id="company">
<path id="Vector" d="M31.013 0.782007C31.186 0.893007 31.374 1.00201 31.421 1.03401C31.5555 1.10321 31.6693 1.2067 31.751 1.33401C31.7866 1.39236 31.8133 1.45574 31.83 1.52201L31.861 1.61601L31.83 1.67901C31.8094 1.74449 31.7934 1.81132 31.782 1.87901C31.782 1.91101 31.751 2.08401 31.735 2.16301C31.719 2.24201 31.704 2.35101 31.688 2.43001C31.6687 2.65981 31.6637 2.89059 31.673 3.12101H32.034L32.38 3.13701L32.537 3.21501C32.9102 3.39998 33.1971 3.72266 33.337 4.11501C33.399 4.32001 33.399 4.33501 33.227 4.44501C32.9949 4.59171 32.7534 4.72299 32.504 4.83801C32.2636 4.93837 32.0167 5.02256 31.765 5.09001C31.733 5.09001 31.718 5.12101 31.686 5.31001C31.6499 5.57035 31.6395 5.83363 31.655 6.09601L31.671 6.33201L31.749 6.31501C31.937 6.28401 32.189 6.23701 32.425 6.17401C32.566 6.12701 32.708 6.11101 32.739 6.09601C32.7719 6.08793 32.8016 6.07002 32.8242 6.04465C32.8467 6.01929 32.8609 5.98767 32.865 5.95401C32.865 5.92301 32.881 5.90701 32.928 5.90701C33.007 5.89101 33.054 5.84401 33.038 5.81301C33.038 5.79701 33.038 5.76601 33.054 5.76601C33.3032 5.77662 33.5506 5.81349 33.792 5.87601C34.1127 5.95778 34.4238 6.07343 34.72 6.22101C34.935 6.32882 35.1401 6.4553 35.333 6.59901C35.4158 6.696 35.4655 6.81684 35.475 6.94401C35.506 7.16401 35.49 7.22701 35.269 7.44401C35.0859 7.63639 34.8517 7.7727 34.594 7.83701C34.1515 7.90509 33.7054 7.94717 33.258 7.96301C32.8031 8.00146 32.3473 8.02747 31.891 8.04101L31.718 8.02601L31.702 8.07301C31.6457 8.27333 31.6089 8.47861 31.592 8.68601V8.90601L31.686 8.95301C31.9344 9.10501 32.1919 9.2416 32.457 9.36201C33.5278 9.94208 34.5522 10.604 35.521 11.342C35.945 11.642 36.071 11.75 36.134 11.892C36.1844 12.0275 36.1955 12.1745 36.166 12.316C36.15 12.379 36.134 12.395 36.056 12.442C35.9467 12.5165 35.8237 12.5687 35.6941 12.5956C35.5646 12.6226 35.431 12.6237 35.301 12.599C35.0375 12.557 34.7674 12.6012 34.531 12.725C34.4513 12.7761 34.3587 12.8035 34.264 12.804C34.1097 12.7968 33.9567 12.835 33.824 12.914C33.714 12.977 33.698 12.977 33.651 12.961C33.6229 12.9486 33.5964 12.9328 33.572 12.914C33.541 12.882 33.541 12.867 33.651 12.505C33.6956 12.4003 33.722 12.2886 33.729 12.175C33.7274 12.0555 33.7008 11.9377 33.651 11.829C33.619 11.766 33.588 11.75 33.415 11.687C32.9295 11.4985 32.4524 11.289 31.985 11.059C31.9017 11.0134 31.8115 10.9816 31.718 10.965H31.671V11.043C31.7355 11.7178 31.7301 12.3974 31.655 13.071C31.6202 13.4185 31.5464 13.761 31.435 14.092C31.3137 14.4306 31.1325 14.7446 30.9 15.019L30.807 15.129H30.429L30.129 14.829C29.8506 14.5552 29.5929 14.261 29.358 13.949C29.2409 13.7711 29.0917 13.6164 28.918 13.493C28.84 13.43 28.718 13.305 28.636 13.226C28.4922 13.0783 28.3654 12.915 28.258 12.739C28.258 12.691 28.432 12.754 28.572 12.833C28.6491 12.8777 28.7352 12.9047 28.824 12.912C29.0318 12.9473 29.2423 12.963 29.453 12.959C29.5898 12.8951 29.7103 12.8011 29.8055 12.6841C29.9008 12.567 29.9683 12.4299 30.003 12.283C30.062 11.9777 30.0778 11.6657 30.05 11.356C30.0671 11.0677 30.0618 10.7785 30.034 10.491C30.017 10.4746 29.9953 10.4638 29.972 10.46C29.956 10.46 29.751 10.617 29.5 10.79C29.249 10.963 29.013 11.136 28.966 11.167C28.854 11.2473 28.7486 11.3366 28.651 11.434C28.3041 11.7799 27.9069 12.0715 27.473 12.299C27.3751 12.3394 27.2923 12.4093 27.236 12.499C27.1416 12.6377 27.0251 12.76 26.891 12.861C26.859 12.876 26.828 12.876 26.749 12.829C26.5135 12.7095 26.3133 12.5306 26.168 12.31C26.121 12.247 26.09 12.153 26.058 12.122C26.031 12.0807 26.0128 12.0342 26.0047 11.9855C25.9967 11.9367 25.9988 11.8869 26.011 11.839C26.031 11.7936 26.0468 11.7464 26.058 11.698C26.073 11.587 26.152 11.525 26.309 11.525C26.356 11.525 26.403 11.509 26.529 11.414C26.608 11.352 26.749 11.242 26.829 11.195C27.3612 10.818 27.8249 10.3526 28.2 9.81901C28.3124 9.6705 28.4027 9.50645 28.468 9.33201L28.499 9.25301L28.437 9.28501C28.2477 9.3615 28.0532 9.42466 27.855 9.47401L27.666 9.53701L27.556 9.64601C27.4506 9.76864 27.3164 9.86311 27.1654 9.9209C27.0144 9.97869 26.8513 9.99797 26.691 9.97701C26.5116 9.9361 26.3436 9.85549 26.1995 9.74109C26.0553 9.6267 25.9386 9.48144 25.858 9.31601C25.827 9.25301 25.796 9.22201 25.639 9.11601C25.592 9.08501 25.402 8.94301 25.339 8.89601L25.213 8.80001V8.89401C25.197 8.98801 25.182 9.22401 25.15 9.74301C25.135 9.90001 25.119 10.749 25.119 11.77L25.1 13.513L25.02 13.686C24.9371 13.8875 24.8793 14.0984 24.848 14.314C24.832 14.44 24.832 14.44 24.769 14.487C24.6326 14.5789 24.5279 14.7105 24.469 14.864C24.422 14.99 24.369 15.053 24.311 15.053C24.1804 15.0119 24.0582 14.9479 23.95 14.864C23.7971 14.7409 23.6912 14.5689 23.65 14.377C23.627 14.2866 23.578 14.2049 23.509 14.142C23.2803 13.8878 23.0897 13.6019 22.943 13.293C22.8635 13.1332 22.8005 12.9656 22.755 12.793C22.755 12.761 22.755 12.761 22.848 12.761C22.9022 12.7672 22.957 12.7588 23.0069 12.7369C23.0568 12.7149 23.1 12.6801 23.132 12.636C23.147 12.604 23.21 12.479 23.258 12.353L23.351 12.133L23.367 11.755C23.399 11.143 23.431 10.42 23.431 9.91701V9.44201L23.336 9.55201C23.2202 9.68354 23.0882 9.79981 22.943 9.89801C22.8774 9.93152 22.8107 9.96287 22.743 9.99201C22.6693 10.0231 22.6044 10.0719 22.554 10.134C22.4064 10.2949 22.2154 10.4095 22.004 10.464C21.9452 10.4751 21.8873 10.4908 21.831 10.511C21.6503 10.5676 21.4667 10.6146 21.281 10.652C21.1517 10.6797 21.0202 10.6958 20.888 10.7C20.7473 10.6914 20.6067 10.7182 20.479 10.778C20.386 10.81 20.134 10.888 20.008 10.919C19.914 10.935 19.945 10.888 20.134 10.719C20.6984 10.1889 21.2434 9.6385 21.768 9.06901C21.815 9.00601 22.051 8.75401 22.161 8.62901C22.413 8.36201 22.852 7.89001 23.246 7.46601L23.528 7.15101L23.544 7.05701C23.5467 6.98331 23.5413 6.90955 23.528 6.83701C23.5105 6.72881 23.4792 6.62329 23.435 6.52301C23.2191 6.59814 23.013 6.69886 22.821 6.82301C22.6334 6.94039 22.4549 7.07176 22.287 7.21601L22.224 7.27901L22.051 7.23201C21.7749 7.14509 21.5258 6.98837 21.328 6.77701C21.202 6.63501 21.186 6.58801 21.108 6.22601L21.029 5.89601L21.08 5.80001L21.205 5.61101C21.237 5.56401 21.269 5.53301 21.269 5.51701C21.2716 5.48764 21.2815 5.45938 21.2977 5.43477C21.314 5.41016 21.336 5.38997 21.362 5.37601C21.441 5.34401 21.535 5.36001 21.724 5.47001C21.823 5.52542 21.9176 5.58826 22.007 5.65801L22.117 5.73701L22.746 5.36001C23.092 5.15501 23.453 4.93601 23.562 4.87301L23.752 4.76301V4.61701C23.752 4.53901 23.783 4.35001 23.783 4.20801C23.83 3.58001 23.893 2.85701 23.983 2.18101C24.0124 2.06285 24.0281 1.94174 24.03 1.82001C24.019 1.80001 24 1.80001 23.956 1.78801C23.8395 1.73304 23.7369 1.65235 23.656 1.55201L23.6 1.47401L23.631 1.41101C23.7872 1.15689 24.0343 0.9717 24.322 0.893007C24.3851 0.866038 24.4553 0.860078 24.522 0.876007C24.8891 0.970316 25.2471 1.09681 25.592 1.25401L25.748 1.33301L25.796 1.45801C25.8598 1.56911 25.8907 1.69602 25.8852 1.824C25.8797 1.95198 25.8381 2.07577 25.765 2.18101C25.6077 2.48973 25.5113 2.82584 25.481 3.17101V3.32901H25.56C25.7621 3.35988 25.9624 3.40161 26.16 3.45401C26.396 3.51701 26.632 3.65401 26.648 3.75401C26.6654 3.87961 26.66 4.00732 26.632 4.13101C26.584 4.30401 26.537 4.39801 26.459 4.44501C26.4149 4.47987 26.3776 4.52258 26.349 4.57101C26.317 4.63401 26.192 4.71201 25.783 4.96401C25.7175 5.00702 25.6547 5.05411 25.595 5.10501C25.578 5.13701 25.495 5.46701 25.453 5.67101C25.3719 6.08581 25.3247 6.50654 25.312 6.92901V7.27401L25.405 7.32101C25.6583 7.46208 25.8914 7.63665 26.098 7.84001C26.16 7.90301 26.192 7.96601 26.207 7.95001C26.2326 7.8995 26.254 7.84699 26.271 7.79301C26.411 7.41601 26.632 6.88101 26.82 6.45701C27.1122 5.62776 27.3589 4.78317 27.559 3.92701C27.638 3.61201 27.653 3.53401 27.638 3.47101C27.6526 3.30705 27.6787 3.14433 27.716 2.98401C27.747 2.84201 27.747 2.81101 27.732 2.76401C27.7187 2.71929 27.6944 2.67859 27.6614 2.6456C27.6284 2.6126 27.5877 2.58834 27.543 2.57501C27.4856 2.5537 27.436 2.51532 27.401 2.46501L27.323 2.38601L27.434 2.29201C27.566 2.18011 27.7215 2.09944 27.889 2.05601C27.9723 2.04076 28.0577 2.04076 28.141 2.05601C28.3431 2.09499 28.5387 2.16232 28.722 2.25601C28.9715 2.36525 29.1883 2.53757 29.351 2.75601C29.3794 2.81795 29.3885 2.88697 29.3773 2.95416C29.3661 3.02136 29.335 3.08365 29.288 3.13301C29.24 3.18001 29.24 3.19601 29.24 3.27401C29.2304 3.56196 29.183 3.8474 29.099 4.12301C29.0736 4.20413 29.0628 4.28911 29.067 4.37401C29.075 4.4335 29.0642 4.494 29.036 4.54701C29.021 4.57901 29.005 4.61001 29.021 4.62601C29.1971 4.56221 29.365 4.47761 29.521 4.37401C29.5756 4.34634 29.6333 4.32551 29.693 4.31201C29.811 4.27844 29.9225 4.22537 30.023 4.15501L30.07 4.10701V1.56801L30.023 1.47401C29.977 1.34801 29.992 1.27401 30.086 1.08101C30.2113 0.827007 30.337 0.700007 30.463 0.700007C30.494 0.700007 30.51 0.700007 30.51 0.684007C30.51 0.668007 30.525 0.653007 30.541 0.637007C30.6 0.562007 30.651 0.562007 31.013 0.782007ZM29.991 5.85901V5.52901L29.818 5.60701C29.5522 5.76216 29.2588 5.86405 28.954 5.90701C28.731 5.91999 28.5144 5.98682 28.3229 6.10176C28.1313 6.2167 27.9704 6.37633 27.854 6.56701C27.5785 6.89403 27.2672 7.1892 26.926 7.44701L26.267 8.04701L26.329 8.12601C26.36 8.17301 26.407 8.26801 26.455 8.32601L26.533 8.45201L26.612 8.40501C26.659 8.37401 26.722 8.34201 26.77 8.31101C26.958 8.18501 28.31 7.51101 29.252 7.06901C29.63 6.89601 29.646 6.89601 29.724 6.91201C29.7596 6.92276 29.7979 6.92076 29.8322 6.90634C29.8665 6.89192 29.8948 6.86599 29.912 6.83301C29.9383 6.73531 29.9488 6.63402 29.943 6.53301C29.9389 6.43192 29.95 6.33078 29.976 6.23301C29.9939 6.10919 29.9989 5.98386 29.991 5.85901ZM42.466 7.02201C42.497 7.03801 43.016 7.35201 43.283 7.52201C43.52 7.67901 43.551 7.71001 43.583 7.86801C43.5968 7.94014 43.6022 8.01363 43.599 8.08701C43.599 8.16601 43.583 8.19801 43.504 8.29201C43.3413 8.45273 43.1419 8.57147 42.923 8.63801C42.8739 8.65479 42.8264 8.67587 42.781 8.70101C42.6331 8.78076 42.4745 8.83869 42.31 8.87301C42.2223 8.89523 42.138 8.92885 42.059 8.97301C42.0092 9.00017 41.9663 9.03834 41.9336 9.08462C41.9008 9.13089 41.8791 9.18404 41.87 9.24001C41.855 9.33401 41.603 10.875 41.618 10.89C41.7632 10.8543 41.9053 10.8072 42.043 10.749C42.278 10.67 42.515 10.591 42.577 10.576C42.9249 10.5093 43.2529 10.3639 43.536 10.151C43.5936 10.106 43.6572 10.0693 43.725 10.042C43.8581 9.99263 43.9693 9.89767 44.039 9.77401C44.0705 9.70274 44.0966 9.6292 44.117 9.55401C44.148 9.47601 44.148 9.41301 44.164 9.39701C44.18 9.38101 44.148 9.44401 44.148 9.52301C44.1323 9.6772 44.1647 9.83248 44.2408 9.9675C44.3169 10.1025 44.4329 10.2106 44.573 10.277C44.6922 10.3321 44.7978 10.4128 44.8821 10.5134C44.9665 10.614 45.0276 10.732 45.061 10.859L45.076 10.969L45 11.061C44.8942 11.1665 44.7784 11.2613 44.654 11.344C44.5939 11.3663 44.5301 11.3768 44.466 11.375C44.17 11.4116 43.8762 11.4643 43.586 11.533C42.9429 11.6961 42.3283 11.9557 41.763 12.303C41.6152 12.395 41.4567 12.4686 41.291 12.522C40.4888 12.7872 39.7576 13.2318 39.153 13.822L38.934 14.022V14.133C38.9251 14.2011 38.9094 14.2681 38.887 14.333C38.84 14.443 38.745 14.615 38.714 14.615C38.5935 14.5819 38.4773 14.5346 38.368 14.474C38.078 14.2961 37.8438 14.0404 37.692 13.736L37.613 13.61V13.1L37.692 12.99C37.7481 12.9116 37.7957 12.8275 37.834 12.739C37.8547 12.6729 37.8923 12.6133 37.943 12.566C37.9733 12.5354 38.012 12.5145 38.0542 12.5059C38.0964 12.4974 38.1402 12.5016 38.18 12.518C38.2875 12.5516 38.4026 12.5516 38.51 12.518C38.9373 12.4405 39.3343 12.2448 39.656 11.953C39.9484 11.6349 40.1494 11.2438 40.238 10.821C40.3085 10.4682 40.3085 10.1049 40.238 9.75201V9.70901L40.038 9.80901C39.928 9.85601 39.693 9.95001 39.538 10.009C39.271 10.119 39.238 10.135 39.208 10.182C39.1964 10.2021 39.1805 10.2195 39.1615 10.233C39.1425 10.2465 39.1209 10.2557 39.098 10.26C38.9794 10.1822 38.8689 10.0927 38.768 9.99301C38.6249 9.86151 38.5116 9.70098 38.4355 9.52214C38.3595 9.3433 38.3225 9.15029 38.327 8.95601V8.80001L38.422 8.67401C38.469 8.61101 38.532 8.51701 38.579 8.45401L38.657 8.34401L38.752 8.39101C38.9505 8.49641 39.1723 8.55039 39.397 8.54801H39.57L39.9 8.39101C40.1907 8.23452 40.4914 8.09723 40.8 7.98001C41.3478 7.75151 41.8651 7.45591 42.34 7.10001C42.3771 7.06678 42.4197 7.04037 42.466 7.02201ZM44.366 1.16001C44.413 1.17501 44.523 1.22301 44.602 1.25401C44.9613 1.38616 45.2959 1.57747 45.592 1.82001L45.733 1.94501V2.05501C45.7384 2.20956 45.7812 2.36049 45.8579 2.4948C45.9345 2.62912 46.0427 2.74278 46.173 2.82601C46.3499 2.91872 46.5425 2.97772 46.741 3.00001C46.8244 2.99424 46.9073 3.01603 46.977 3.06201C47.1117 3.14188 47.224 3.25438 47.3037 3.38913C47.3834 3.52388 47.4279 3.67654 47.433 3.83301C47.4171 3.94206 47.3737 4.04528 47.307 4.13301C47.226 4.19845 47.1357 4.25137 47.039 4.29001C46.678 4.49501 46.38 4.66801 46.05 4.89001L45.735 5.09501L45.751 5.20501C45.8909 6.69581 46.2508 8.15768 46.819 9.54301C47.0759 10.1372 47.4145 10.6925 47.825 11.193C47.8851 11.2793 47.9648 11.35 48.0577 11.3992C48.1506 11.4484 48.2539 11.4748 48.359 11.476C48.5753 11.4094 48.7818 11.3142 48.973 11.193C49.1326 11.077 49.2753 10.9393 49.397 10.784C49.444 10.706 49.491 10.674 49.491 10.69C49.5359 10.8326 49.5414 10.9846 49.507 11.13L49.476 11.224L49.586 11.633C49.648 11.853 49.743 12.261 49.821 12.528C49.857 12.7298 49.9206 12.9256 50.01 13.11C50.2017 13.4156 50.3 13.7704 50.293 14.131C50.3 14.2268 50.2895 14.323 50.262 14.415C50.183 14.572 50.167 14.588 49.994 14.603C49.7171 14.6242 49.4424 14.5399 49.225 14.367C48.6896 13.9013 48.1804 13.4062 47.7 12.884C46.9449 12.0346 46.306 11.0887 45.8 10.071C45.5355 9.55296 45.3044 9.01854 45.108 8.47101C44.7866 7.57189 44.4866 6.6653 44.208 5.75201C44.1833 5.64012 44.1516 5.5299 44.113 5.42201C44.098 5.40601 44.082 5.42201 44.066 5.43801C44.05 5.45401 43.595 5.61001 43.06 5.79901C42.525 5.98801 41.725 6.28601 41.284 6.45901L40.484 6.75901L40.391 6.72701C39.9387 6.60088 39.5088 6.40485 39.117 6.14601C38.8767 5.99361 38.6459 5.82663 38.426 5.64601C38.2716 5.49586 38.1441 5.32031 38.049 5.12701C37.985 4.98601 37.985 4.98601 38.018 4.93901C38.0672 4.84572 38.1306 4.76069 38.206 4.68701L38.253 4.65501L38.4 4.70001C38.8818 4.85538 39.3937 4.8931 39.893 4.81001C40.9268 4.66449 41.9467 4.43302 42.942 4.11801C43.02 4.08701 43.225 4.02401 43.366 3.97701C43.68 3.88201 43.712 3.86701 43.79 3.77701C43.8368 3.72414 43.8687 3.65985 43.8826 3.59065C43.8965 3.52145 43.8918 3.44981 43.869 3.38301C43.8581 3.31691 43.8527 3.25001 43.853 3.18301C43.877 3.05311 43.877 2.91991 43.853 2.79001C43.8214 2.68737 43.7686 2.59246 43.6982 2.51136C43.6278 2.43026 43.5412 2.36474 43.444 2.31901C43.2842 2.20327 43.1414 2.06559 43.02 1.91001C43.02 1.89401 43.02 1.86301 43.083 1.76901C43.2686 1.50872 43.5421 1.32438 43.853 1.25001C43.9202 1.23565 43.9843 1.20923 44.042 1.17201C44.0632 1.15218 44.091 1.1408 44.12 1.14001C44.2025 1.11768 44.2902 1.12475 44.368 1.16001H44.366ZM48.043 1.41101C48.3089 1.523 48.5663 1.65435 48.813 1.80401C49.0392 1.90241 49.2387 2.05323 49.395 2.24401C49.6942 2.6184 49.9427 3.03063 50.134 3.47001C50.212 3.64301 50.212 3.70601 50.165 3.80001C50.1125 3.89015 50.0423 3.96871 49.9586 4.03093C49.8749 4.09315 49.7795 4.13775 49.678 4.16201C49.52 4.19301 49.489 4.17701 49.269 4.06701C48.9571 3.90391 48.6668 3.70233 48.405 3.46701L48.31 3.36701L48.185 3.38301C48.122 3.39901 47.996 3.44601 47.934 3.46201C47.872 3.47801 47.823 3.49301 47.808 3.49301C47.793 3.49301 47.823 3.44601 47.87 3.38301C48.0218 3.18908 48.1098 2.95295 48.122 2.70701C48.1257 2.6177 48.1203 2.52824 48.106 2.44001C48.0986 2.3589 48.0657 2.28223 48.012 2.22101C47.8711 2.03941 47.7399 1.85048 47.619 1.65501L47.572 1.57601L47.792 1.49701C47.92 1.45801 48.029 1.41101 48.045 1.41101H48.043ZM57.126 0.735007C57.2794 0.730014 57.4328 0.745825 57.582 0.782007C57.8359 0.840237 58.076 0.947218 58.289 1.09701L58.384 1.16001V1.23801C58.3897 1.42302 58.4606 1.60009 58.584 1.73801C58.6414 1.82945 58.6938 1.92392 58.741 2.02101C59.0393 2.63137 59.4817 3.15993 60.03 3.56101C60.1374 3.64169 60.2378 3.73135 60.33 3.82901C60.677 4.22101 61.085 4.72901 61.384 5.11701C61.5058 5.27221 61.6485 5.40984 61.808 5.52601C62.6138 6.13738 63.385 6.79305 64.118 7.49001C64.244 7.63201 64.495 7.86801 64.652 8.02501C64.825 8.18201 64.998 8.33901 65.03 8.37101L65.108 8.43401L65.03 8.49601C64.966 8.54691 64.8992 8.59431 64.83 8.63801C64.687 8.72047 64.5227 8.75842 64.358 8.74701C64.28 8.74701 64.076 8.71601 63.888 8.71601C63.7 8.71601 63.447 8.66901 63.416 8.66901C63.337 8.65301 63.18 8.63801 63.086 8.62201C62.754 8.5609 62.4278 8.47158 62.111 8.35501C61.877 8.21995 61.6607 8.05637 61.467 7.86801C60.9685 7.42959 60.4964 6.96211 60.053 6.46801C59.9868 6.38303 59.9131 6.30406 59.833 6.23201C59.816 6.23201 59.816 6.24801 59.801 6.27901C59.738 6.38901 59.676 6.42101 59.282 6.56201C58.827 6.73501 58.34 6.90801 57.853 7.06201C57.6205 7.12499 57.398 7.22025 57.192 7.34501C56.8781 7.52306 56.5737 7.71732 56.28 7.92701C56.155 8.00501 55.98 8.12701 55.888 8.19401C55.5967 8.37579 55.2963 8.54268 54.988 8.69401C55.0386 8.63412 55.0968 8.58102 55.161 8.53601C55.461 8.28501 55.915 7.86101 56.198 7.59401L56.465 7.32601H56.245C56.1185 7.33391 55.9915 7.32347 55.868 7.29501C55.5933 7.22604 55.3398 7.09037 55.13 6.90001L55.036 6.79001L54.989 6.85301C54.8697 6.97638 54.783 7.12763 54.737 7.29301C54.7293 7.34261 54.7134 7.3906 54.69 7.43501C54.675 7.45001 54.549 7.54501 54.423 7.67001C54.0669 8.01051 53.6829 8.32059 53.275 8.59701C52.9918 8.79842 52.686 8.96621 52.364 9.09701C51.864 9.33301 50.918 9.78901 50.557 9.99701C50.4353 10.0708 50.3094 10.1376 50.18 10.197C50.0741 10.2339 49.962 10.2499 49.85 10.244C49.818 10.244 49.818 10.228 50.038 10.008C50.7659 9.3025 51.4543 8.55737 52.1 7.77601C52.5508 7.26961 52.9608 6.72824 53.326 6.15701C54.065 4.97901 55.086 3.23401 55.274 2.85701C55.486 2.46157 55.7288 2.0834 56 1.72601L56.094 1.60001L56.047 1.52101C56.0261 1.47617 56.0167 1.42687 56.0195 1.3775C56.0223 1.32812 56.0372 1.28021 56.063 1.23801L56.157 1.04901C56.235 0.908007 56.251 0.908007 56.267 0.924007C56.283 0.940007 56.298 0.939007 56.377 0.893007C56.4837 0.816406 56.6077 0.767601 56.738 0.751007C56.8667 0.735722 56.9965 0.730373 57.126 0.735007ZM60.207 7.88601C60.339 7.89587 60.4674 7.93334 60.584 7.99601C60.631 8.01201 60.804 8.09001 60.977 8.16901C61.1258 8.21643 61.2645 8.29102 61.386 8.38901C61.559 8.51997 61.7431 8.63573 61.936 8.73501C62.059 8.78675 62.171 8.86141 62.266 8.95501C62.3884 9.06704 62.4709 9.21589 62.501 9.37901C62.533 9.48901 62.549 9.50501 62.611 9.53701C62.643 9.55201 62.658 9.55201 62.658 9.56801C62.658 9.58401 62.627 9.59901 62.58 9.61501C62.4726 9.68304 62.377 9.76816 62.297 9.86701L62.219 9.96101L61.419 9.94501C60.161 9.92901 58.888 9.97601 57.6 10.086L57.285 10.102L57.191 10.181C57.1396 10.2262 57.0816 10.2633 57.019 10.291C56.94 10.322 56.919 10.354 56.814 10.511C56.673 10.711 56.468 11.03 56.327 11.265C56.186 11.5 55.949 11.988 55.965 11.988C55.997 11.988 56.814 11.768 57.144 11.674C57.3193 11.62 57.4981 11.5779 57.679 11.548C58.1359 11.4882 58.5875 11.3936 59.03 11.265C58.9157 11.1187 58.7892 10.9822 58.652 10.857L58.527 10.731L58.59 10.668C58.6733 10.6051 58.7416 10.5245 58.79 10.432C58.79 10.417 58.806 10.401 58.853 10.417C58.9319 10.4291 59.0125 10.4237 59.089 10.401C59.0901 10.3925 59.0892 10.3838 59.0864 10.3757C59.0836 10.3675 59.0791 10.3601 59.073 10.354C59.042 10.322 59.058 10.338 59.262 10.401C59.8197 10.5751 60.3492 10.8291 60.834 11.155C61.13 11.3384 61.3864 11.5791 61.588 11.863C62.0276 12.3989 62.4119 12.9778 62.735 13.591C62.7778 13.6566 62.7997 13.7337 62.798 13.812C62.7879 13.8759 62.7722 13.9389 62.751 14C62.735 14.094 62.72 14.11 62.688 14.11C62.609 14.125 62.578 14.173 62.547 14.267C62.468 14.4599 62.3442 14.6313 62.186 14.767C62.125 14.8075 62.0615 14.8442 61.996 14.877C61.9198 14.9229 61.8414 14.965 61.761 15.003C61.6869 15.0411 61.6073 15.0675 61.525 15.081H61.431L61.32 14.955C61.0249 14.6101 60.7817 14.2241 60.598 13.809C60.4886 13.4927 60.3052 13.2071 60.063 12.976L59.763 12.661L59.322 12.771C57.704 13.133 56.446 13.447 56.1 13.588C55.8261 13.7037 55.559 13.8349 55.3 13.981C55.19 14.044 55.064 14.122 55.018 14.139C54.8066 14.2254 54.6259 14.3731 54.499 14.563C54.42 14.673 54.373 14.72 54.294 14.736C54.263 14.736 54.216 14.72 54.074 14.625C53.7987 14.434 53.5414 14.2185 53.305 13.981L53.037 13.73V13.5C53.0361 13.3737 53.0258 13.2477 53.006 13.123C52.99 12.966 52.99 12.923 53.006 12.887C53.0631 12.7858 53.1376 12.6954 53.226 12.62C53.257 12.588 53.257 12.588 53.305 12.636C53.3368 12.666 53.3788 12.6828 53.4225 12.6828C53.4662 12.6828 53.5083 12.666 53.54 12.636C53.5871 12.6003 53.6403 12.5735 53.697 12.557C53.8857 12.5061 54.0697 12.4392 54.247 12.357L54.435 12.278L54.641 11.807C54.75 11.54 54.923 11.147 55.018 10.907C55.0958 10.7673 55.1588 10.6198 55.206 10.467C55.19 10.451 54.247 10.797 53.587 11.067C53.194 11.224 53.179 11.224 53.087 11.224C52.9836 11.2062 52.8854 11.1661 52.799 11.1066C52.7127 11.047 52.6403 10.9693 52.587 10.879C52.4626 10.738 52.3521 10.5853 52.257 10.423C52.1875 10.2844 52.1397 10.1361 52.115 9.98301C52.0875 9.89122 52.0823 9.79419 52.1 9.70001C52.132 9.60001 52.148 9.58901 52.367 9.58901C52.4636 9.59592 52.5606 9.58017 52.65 9.54301L52.744 9.49501V9.54301C52.744 9.55801 52.729 9.57401 52.744 9.57401C52.759 9.57401 52.886 9.54301 53.044 9.51101C53.202 9.47901 53.861 9.33801 54.49 9.19701C55.119 9.05601 55.858 8.89701 56.124 8.83501C56.924 8.64701 57.963 8.47401 59.174 8.31701L59.645 8.25401L59.739 8.19101L59.881 8.09101C59.9325 8.05434 59.9801 8.01245 60.023 7.96601C60.112 7.88601 60.112 7.88601 60.207 7.88601ZM57.079 3.43801C57.0314 3.43057 56.9828 3.4338 56.9366 3.44747C56.8904 3.46113 56.8479 3.48488 56.812 3.51701C56.4661 3.97993 56.1562 4.4687 55.885 4.97901C55.7112 5.27681 55.5589 5.58659 55.429 5.90601C55.429 5.93801 55.429 5.95301 55.508 5.96901C55.6904 6.00249 55.8779 5.99704 56.058 5.95301C56.5521 5.83161 57.0168 5.61265 57.425 5.30901C57.5145 5.23471 57.6159 5.17621 57.725 5.13601C57.74 5.13601 57.756 5.10401 57.772 5.07301C57.8587 4.98155 57.9763 4.92559 58.102 4.91601C58.1729 4.91985 58.2417 4.94151 58.302 4.97901C58.5372 5.10132 58.7785 5.21147 59.025 5.30901C59.041 5.29301 58.051 4.14601 57.956 4.06701C57.7493 3.87319 57.5287 3.69471 57.296 3.53301C57.189 3.45401 57.158 3.43801 57.079 3.43801ZM73.908 1.66301C74.2361 1.79717 74.5517 1.96014 74.851 2.15001C75.129 2.32178 75.3962 2.51047 75.651 2.71501C75.7143 2.7765 75.7811 2.83426 75.851 2.88801C75.9606 2.95949 76.0438 3.06484 76.088 3.18801C76.1137 3.3238 76.1082 3.46364 76.072 3.59701C76.04 3.67501 76.024 3.70701 75.977 3.72201C75.7745 3.81609 75.6167 3.98541 75.537 4.19401C75.4247 4.43978 75.3815 4.71152 75.412 4.98001V5.37301L75.49 5.35701C75.679 5.32601 75.71 5.31001 75.82 5.10501C75.867 5.01101 75.867 5.01101 76.04 4.98001C76.15 4.96401 76.15 4.96401 76.213 4.99601C76.3102 5.051 76.4166 5.08793 76.527 5.10501C76.7713 5.18418 77.0082 5.28457 77.235 5.40501C77.3365 5.46653 77.4483 5.50921 77.565 5.53101C77.9192 5.60568 78.237 5.79987 78.465 6.08101C78.5571 6.16726 78.6132 6.28514 78.622 6.41101C78.622 6.50501 78.575 6.56801 78.434 6.66201C78.2883 6.76475 78.112 6.81483 77.934 6.80401L77.776 6.81901L77.556 6.91401C77.383 6.99201 77.132 7.08601 76.817 7.19701C76.4208 7.33472 76.0096 7.42436 75.592 7.46401C75.528 7.44801 75.528 7.46401 75.528 7.49501C75.528 7.57401 75.497 8.39501 75.481 8.73701C75.466 9.17701 75.419 9.86901 75.387 10.309C75.3792 10.4945 75.3531 10.6787 75.309 10.859C75.231 11.094 75.231 11.11 75.262 11.126C75.5158 11.1708 75.7733 11.1919 76.031 11.189C76.1729 11.1961 76.3151 11.1907 76.456 11.173C76.676 11.11 76.802 11.126 77.085 11.33C77.2772 11.4741 77.4886 11.5906 77.713 11.676C78.0271 11.7657 78.3192 11.9195 78.5708 12.1278C78.8225 12.3361 79.0282 12.5942 79.175 12.886C79.2223 12.956 79.2496 13.0376 79.254 13.122C79.254 13.232 79.237 13.263 79.064 13.436C78.9498 13.5559 78.8176 13.6571 78.672 13.736C78.6042 13.7728 78.5291 13.7943 78.452 13.799C78.357 13.799 78.326 13.799 78.106 13.689C77.6091 13.4276 77.0653 13.2672 76.506 13.217C76.239 13.201 74.337 13.233 73.661 13.28C73.1909 13.3145 72.7234 13.3777 72.261 13.469L72.04 13.5L71.993 13.594C71.9622 13.677 71.9095 13.7502 71.8405 13.8056C71.7715 13.8611 71.6887 13.8968 71.601 13.909C71.49 13.924 71.459 13.909 71.255 13.767C70.9309 13.549 70.6619 13.2587 70.469 12.919C70.4198 12.8432 70.3674 12.7694 70.312 12.698C70.2479 12.6163 70.1947 12.5266 70.154 12.431C70.092 12.306 70.076 12.306 70.076 12.337C70.045 12.51 69.982 13.201 69.966 13.72L69.95 14.145L69.856 14.223C69.6491 14.4187 69.4225 14.5926 69.18 14.742C69.0446 14.7039 68.9204 14.6336 68.818 14.537C68.7071 14.3936 68.6175 14.235 68.552 14.066C68.5107 13.9805 68.4579 13.9011 68.395 13.83C68.269 13.6827 68.1483 13.5309 68.033 13.375L67.892 13.186L67.97 13.086C68.0211 13.0255 68.0635 12.9582 68.096 12.886C68.1206 12.8262 68.1582 12.7726 68.206 12.729C68.2662 12.6559 68.309 12.5701 68.331 12.478C68.3386 12.4349 68.3613 12.3959 68.395 12.368L68.441 12.32L68.457 11.975C68.473 11.786 68.473 11.393 68.473 11.094V10.544L68.379 10.45L68.269 10.356L68.191 10.387C68.0208 10.451 67.8615 10.5411 67.719 10.654C67.1458 10.9903 66.5523 11.2909 65.942 11.554C65.597 11.695 65.109 11.9 65.094 11.884C65.079 11.868 65.109 11.837 65.141 11.774C65.2631 11.6001 65.4116 11.4463 65.581 11.318C66.3147 10.8138 66.94 10.1678 67.42 9.41801C67.9735 8.60786 68.4111 7.72431 68.72 6.79301C68.751 6.68301 68.751 6.68301 68.72 6.68301C68.704 6.68301 68.342 6.98301 67.855 7.40601L67.022 8.14501L66.959 8.12901C66.7934 8.09443 66.6379 8.02238 66.5044 7.91837C66.3709 7.81437 66.263 7.68117 66.189 7.52901C66.1496 7.44246 66.0966 7.36278 66.032 7.29301C65.906 7.13601 65.875 7.08801 65.875 7.04201C65.872 7.00266 65.879 6.96319 65.8954 6.92732C65.9119 6.89145 65.9372 6.86036 65.969 6.83701C66.0139 6.797 66.0511 6.74924 66.079 6.69601C66.1367 6.59518 66.2111 6.5049 66.299 6.42901C66.487 6.24001 66.499 6.22401 66.566 6.24001C66.5824 6.23765 66.5992 6.24104 66.6134 6.24961C66.6276 6.25817 66.6384 6.27138 66.644 6.28701C66.716 6.37758 66.8009 6.4571 66.896 6.52301C66.94 6.55791 66.9931 6.57939 67.049 6.58489C67.1048 6.59039 67.1611 6.57967 67.211 6.55401C67.487 6.4498 67.7383 6.28942 67.949 6.08301C68.049 5.98801 68.091 5.95701 68.122 5.95701C68.153 5.95701 68.217 5.92601 68.295 5.83201C68.4299 5.70211 68.5773 5.58588 68.735 5.48501L68.829 5.42301L68.813 5.32901C68.8043 5.24242 68.8223 5.15524 68.8647 5.07923C68.9071 5.00322 68.9718 4.94206 69.05 4.90401C69.0968 4.87608 69.1306 4.83078 69.144 4.77801C69.175 4.66901 69.175 4.66901 69.344 4.55801C69.4143 4.50556 69.4946 4.46812 69.58 4.44801C69.6827 4.43815 69.7806 4.40008 69.863 4.33801C69.9661 4.25872 70.0836 4.2003 70.209 4.16601C70.7488 4.34732 71.2614 4.60096 71.733 4.92001L71.875 5.01401L71.843 5.06101C71.7236 5.28786 71.564 5.49116 71.372 5.66101L71.277 5.75601L71.182 5.74001H71.073L70.9 6.08601C70.5308 6.83175 70.1797 7.58631 69.847 8.34901C69.674 8.74201 69.658 8.78901 69.658 8.86801V8.96201H69.8C69.9202 8.97008 70.0408 8.97008 70.161 8.96201C70.272 8.95166 70.3839 8.96217 70.491 8.99301C70.539 9.00901 70.617 9.04101 70.664 9.05601C70.8367 9.10665 71.0041 9.17362 71.164 9.25601C71.3464 9.34408 71.5199 9.44957 71.682 9.57101C71.7099 9.64124 71.7261 9.71555 71.73 9.79101C71.762 9.98001 71.808 10.31 71.824 10.373C71.824 10.388 71.808 10.42 71.73 10.451C71.5718 10.5204 71.4014 10.5575 71.2286 10.5603C71.0559 10.563 70.8843 10.5313 70.724 10.467C70.6373 10.4423 70.5471 10.4315 70.457 10.435C70.3622 10.4343 70.2692 10.4618 70.19 10.514C70.174 10.53 70.127 11.095 70.095 11.551C70.08 11.866 70.08 11.881 70.111 11.913C70.158 11.976 70.284 11.976 70.284 11.928C70.284 11.897 70.284 11.897 70.41 11.96C70.7239 12.0861 71.0662 12.1241 71.4 12.07L71.62 12.054L71.699 11.991C71.91 11.8201 72.1104 11.6364 72.299 11.441C72.5963 11.1114 72.8448 10.741 73.037 10.341C73.1073 10.2266 73.1504 10.0977 73.163 9.96401C73.163 9.88501 73.194 9.39801 73.194 8.86401V7.91701L73.116 7.98001C72.943 8.12201 72.848 8.12201 72.566 8.01201C72.4033 7.95157 72.2458 7.87799 72.095 7.79201C72.058 7.76539 72.0145 7.74917 71.969 7.74501C71.8615 7.6764 71.761 7.59735 71.669 7.50901C71.3542 7.21132 71.0451 6.9076 70.742 6.59801C70.776 6.4943 70.8293 6.39795 70.899 6.31401L71 6.23601L71.33 6.37701L71.676 6.51901L71.943 6.48701C72.4396 6.43566 72.933 6.35721 73.421 6.25201C73.437 6.23601 73.421 4.20801 73.405 3.85201C73.39 3.65201 73.39 3.33401 73.373 3.14501C73.3856 2.89447 73.3318 2.64506 73.217 2.42201C73.1714 2.32062 73.1129 2.22551 73.043 2.13901C73.012 2.13901 72.902 2.02901 72.887 1.98201C72.854 1.90301 72.87 1.88201 72.98 1.82501C73.1083 1.75634 73.2467 1.70841 73.39 1.68301C73.5601 1.6451 73.7356 1.63833 73.908 1.66301ZM70.262 1.00001C70.311 1.03977 70.3719 1.06195 70.435 1.06301C70.7355 1.17927 71.0203 1.33244 71.283 1.51901C71.535 1.67601 71.535 1.70701 71.503 1.77001C71.4776 1.83692 71.4566 1.90539 71.44 1.97501C71.4283 2.03044 71.4073 2.08351 71.378 2.13201C71.2887 2.27552 71.1884 2.41192 71.078 2.54001L70.968 2.66601L70.811 2.71301C70.3227 2.82446 69.8856 3.09582 69.569 3.48401C69.381 3.68401 68.218 4.82001 67.055 5.92001C66.9634 6.02374 66.8573 6.11367 66.74 6.18701C66.7168 6.19107 66.6952 6.20185 66.678 6.21801C66.645 6.23401 66.661 6.20301 66.693 6.14001C66.8036 5.9468 66.9297 5.76286 67.07 5.59001C67.133 5.51101 67.321 5.30701 67.494 5.13401C67.8034 4.83255 68.0681 4.4884 68.28 4.11201C68.367 3.96071 68.4614 3.81386 68.563 3.67201C68.657 3.53101 68.768 3.35801 68.83 3.26401C68.925 3.10601 68.925 3.09101 68.909 3.09101C68.8614 3.08306 68.8144 3.07238 68.768 3.05901C68.633 3.03657 68.5043 2.98575 68.3903 2.9099C68.2764 2.83406 68.1798 2.73491 68.107 2.61901C68.076 2.57201 67.997 2.47801 67.981 2.44601C67.9174 2.37981 67.8679 2.30133 67.8355 2.21536C67.8032 2.1294 67.7887 2.03775 67.793 1.94601C67.8023 1.84025 67.8347 1.73782 67.888 1.64601C68.013 1.58301 68.061 1.55101 68.076 1.44101C68.092 1.37801 68.092 1.37801 68.123 1.37801C68.1469 1.38263 68.169 1.39369 68.187 1.41001L68.218 1.44101V1.40001C68.218 1.36801 68.218 1.35201 68.233 1.35201C68.3249 1.39366 68.4141 1.44109 68.5 1.49401L68.783 1.61901H68.925C69.0057 1.62486 69.0866 1.61077 69.1605 1.57798C69.2345 1.5452 69.2992 1.49472 69.349 1.43101C69.428 1.35201 69.459 1.32101 69.931 1.08501C70.136 0.971007 70.23 0.955007 70.262 1.00001ZM86.162 1.40001C86.3736 1.50894 86.5695 1.6462 86.744 1.80801C87.0135 2.05462 87.237 2.34717 87.404 2.67201L87.467 2.81401L87.514 3.47401C87.546 3.83601 87.546 4.11801 87.562 4.13401C87.578 4.15001 87.64 4.13401 87.703 4.16601C88.127 4.30701 88.347 4.52701 88.347 4.77801V4.88801L87.812 5.42301L87.278 5.94201L87.216 6.14201C87.184 6.25201 87.152 6.34201 87.168 6.36201C87.184 6.38201 87.263 6.28301 87.389 6.17301C88.3901 5.14928 89.6094 4.36478 90.956 3.87801C91.4893 3.76627 92.0432 3.8047 92.556 3.98901C92.898 4.18357 93.2057 4.43288 93.467 4.72701C94.1592 5.39787 94.6154 6.27504 94.767 7.22701C94.8118 7.6081 94.8172 7.99281 94.783 8.37501C94.69 9.06654 94.4771 9.73656 94.154 10.355C94.0777 10.5158 93.9939 10.673 93.903 10.826L93.8 11L93.895 11.173C94.1074 11.5785 94.2909 11.9986 94.444 12.43C94.4959 12.5791 94.538 12.7314 94.57 12.886C94.4771 12.9748 94.3712 13.049 94.256 13.106C94.0914 13.1906 93.9067 13.2287 93.722 13.216C93.501 13.216 93.438 13.153 93.234 12.792C93.1639 12.661 93.0858 12.5344 93 12.413C92.9418 12.453 92.8891 12.5004 92.843 12.554C92.3991 12.9734 91.8512 13.2665 91.256 13.403C91.085 13.4352 90.9106 13.4456 90.737 13.434C90.6108 13.4425 90.484 13.4372 90.359 13.418C90.2042 13.2858 90.0575 13.1442 89.92 12.994C89.4394 12.4495 89.1618 11.7557 89.134 11.03C89.1244 10.7456 89.1452 10.461 89.196 10.181C89.219 10.0775 89.2351 9.97263 89.244 9.86701C89.2601 9.67836 89.3025 9.49289 89.37 9.31601C89.4877 9.06211 89.6659 8.84097 89.889 8.67201C90.029 8.57801 90.108 8.56201 90.501 8.56201C90.6598 8.55414 90.8189 8.56998 90.973 8.60901C91.358 8.70261 91.7107 8.89812 91.994 9.17501L92.12 9.30101L92.167 9.22201C92.428 8.75105 92.6439 8.25653 92.812 7.74501C92.9182 7.37232 92.8782 6.97316 92.7 6.62901C92.6717 6.54749 92.6261 6.47305 92.5664 6.41075C92.5067 6.34845 92.4342 6.29976 92.354 6.26801C91.9555 6.01435 91.4914 5.88295 91.019 5.89001C90.529 5.88808 90.0467 6.01278 89.619 6.25201C89.2127 6.44398 88.8495 6.71609 88.551 7.05201C87.9954 7.72337 87.5105 8.45021 87.104 9.22101L86.853 9.69301L86.837 9.94401C86.7337 11.0676 86.7233 12.1977 86.806 13.323C86.821 13.575 86.821 13.606 86.696 13.748C86.6515 13.8022 86.5965 13.8468 86.5343 13.8791C86.4721 13.9115 86.4039 13.9308 86.334 13.936C86.225 13.952 86.225 13.952 86.161 13.92C85.9244 13.7573 85.7347 13.5352 85.611 13.276C85.4448 12.7631 85.3601 12.2272 85.36 11.688C85.345 11.469 85.312 11.217 85.312 11.139V11L84.7 11.629C84.37 11.975 84.04 12.289 83.992 12.336L83.898 12.43L83.82 12.4C83.5559 12.2434 83.3263 12.0348 83.145 11.787C82.9158 11.4546 82.7704 11.0717 82.721 10.671C82.705 10.53 82.705 10.53 82.736 10.471C82.752 10.439 82.831 10.282 82.847 10.235C82.8704 10.1527 82.9133 10.0772 82.972 10.015C83.0055 9.98398 83.0455 9.96079 83.0891 9.94713C83.1327 9.93347 83.1788 9.92967 83.224 9.93601C83.317 9.95201 83.396 9.90501 83.507 9.81101C83.647 9.68501 83.742 9.65301 83.853 9.70101C83.876 9.70166 83.8989 9.69775 83.9203 9.68951C83.9418 9.68127 83.9614 9.66887 83.978 9.65301C84.4276 9.24284 84.7722 8.73086 84.983 8.16001C85.0813 7.91912 85.1655 7.6727 85.235 7.42201C85.22 7.40601 85.188 7.43801 85.141 7.45301C84.8454 7.54189 84.5377 7.58439 84.229 7.57901C84.0263 7.55899 83.8256 7.52219 83.629 7.46901L83.487 7.42201L83.409 7.31201C83.1878 6.98425 82.9874 6.64291 82.809 6.29001L82.731 6.13301H83.015L82.967 6.02301L82.904 5.91301L82.951 5.88201C82.9681 5.87194 82.9827 5.85819 82.9938 5.84175C83.0048 5.82531 83.0121 5.80661 83.015 5.78701C83.015 5.75601 83.015 5.74001 83.03 5.74001C83.1253 5.75495 83.2195 5.77599 83.312 5.80301C83.39 5.82056 83.471 5.82056 83.549 5.80301C84.1185 5.69539 84.669 5.50469 85.183 5.23701L85.419 5.12701L85.434 5.01701C85.4834 4.50474 85.5748 3.99737 85.707 3.50001C85.8077 3.20187 85.8501 2.88716 85.832 2.57301C85.8451 2.32938 85.8187 2.08524 85.754 1.85001L85.723 1.72501L85.77 1.67701C85.8494 1.58202 85.9453 1.50208 86.053 1.44101C86.0859 1.41949 86.1231 1.40549 86.162 1.40001ZM90.2 9.72501H90.17V9.91401C90.182 10.3034 90.3075 10.6809 90.531 11C90.5762 11.0553 90.6183 11.113 90.657 11.173C90.6719 11.1863 90.6896 11.1961 90.7089 11.2017C90.7281 11.2072 90.7483 11.2084 90.768 11.205C90.9148 11.1533 91.0525 11.0787 91.176 10.984C91.2879 10.8914 91.3886 10.786 91.476 10.67L91.522 10.591L91.429 10.481C91.292 10.3096 91.1333 10.1567 90.957 10.026C90.7703 9.90074 90.5627 9.80997 90.344 9.75801C90.2971 9.74275 90.2489 9.73171 90.2 9.72501ZM100.917 1.77201C101.074 1.77201 101.09 1.77201 101.185 1.83501C101.475 2.0188 101.73 2.25318 101.938 2.52701L102.049 2.68401L102.127 2.65301C102.404 2.59315 102.657 2.45052 102.851 2.24401L102.944 2.15001L103.055 2.22901C103.279 2.40587 103.528 2.54874 103.793 2.65301C104.076 2.77801 104.154 2.96701 104.076 3.37501C104.061 3.4655 104.04 3.55499 104.014 3.64301C103.934 3.82993 103.788 3.98087 103.604 4.06701C103.165 4.26701 103.086 4.31901 103.004 4.44401L102.956 4.50701L103.035 4.60701C103.205 4.85516 103.446 5.04644 103.726 5.15601L103.789 5.17201L104.057 4.95201C104.402 4.67001 104.81 4.32401 104.857 4.27601C104.954 4.19937 105.067 4.14569 105.187 4.11901C105.462 4.07386 105.745 4.12409 105.988 4.26139C106.231 4.39868 106.42 4.61481 106.523 4.87401C106.548 4.91927 106.569 4.96642 106.586 5.01501L106.601 5.07801L106.444 5.26701C106.366 5.37701 106.209 5.56701 106.114 5.69101C106 5.85636 105.862 6.00453 105.706 6.13101L105.454 6.35101L105.627 6.49201C105.722 6.57101 105.879 6.72801 105.988 6.83801C106.361 7.13093 106.613 7.5505 106.696 8.01701C106.696 8.28401 106.57 8.42501 106.178 8.63001C105.889 8.77438 105.573 8.85487 105.25 8.86601C104.98 8.87964 104.71 8.84787 104.45 8.77201L104.262 8.72401L103.9 8.80001C103.083 8.98801 102.25 9.16101 101.354 9.30001C101.071 9.34701 100.754 9.41001 100.679 9.42501C100.19 9.55088 99.7403 9.79975 99.374 10.148C99.0926 10.3677 98.8978 10.6797 98.824 11.029C98.8331 11.1541 98.8649 11.2764 98.918 11.39C98.966 11.484 99.013 11.532 99.311 11.642C99.8783 11.8764 100.488 11.9888 101.102 11.972C101.602 11.9737 102.099 11.9047 102.58 11.767C102.779 11.7309 102.961 11.6317 103.099 11.484L103.24 11.359L103.413 11.406C103.936 11.5262 104.425 11.7624 104.844 12.097C105.039 12.2635 105.217 12.4476 105.378 12.647C105.393 12.679 105.393 12.71 105.378 12.805C105.368 12.9597 105.3 13.1051 105.189 13.213C105.1 13.3012 104.993 13.3693 104.875 13.413C104.534 13.576 104.176 13.6975 103.806 13.775C102.085 14.0495 100.322 13.8203 98.729 13.115C98.4996 13.0061 98.2953 12.8508 98.129 12.659C97.8371 12.3551 97.6168 11.9899 97.484 11.59C97.4475 11.4678 97.4313 11.3405 97.436 11.213C97.4236 11.0351 97.4563 10.8569 97.531 10.695C97.5984 10.5645 97.6953 10.4515 97.814 10.365C98.0166 10.22 98.2466 10.1179 98.49 10.065C98.8626 9.96311 99.2297 9.84229 99.59 9.70301C100.781 9.27427 101.993 8.90712 103.221 8.60301C103.483 8.55001 103.737 8.46012 103.974 8.33601C104.127 8.26719 104.266 8.17131 104.384 8.05301C104.418 8.02123 104.444 7.98201 104.46 7.93845C104.476 7.8949 104.482 7.84819 104.477 7.80201C104.446 7.69201 104.384 7.66001 103.912 7.44001C103.661 7.33001 103.456 7.24001 103.425 7.22001C103.394 7.20001 103.347 7.20401 103.225 7.25201C102.942 7.34709 102.664 7.45691 102.392 7.58101C101.036 8.1605 99.6443 8.65414 98.226 9.05901L98.054 9.10601L97.976 9.07501C97.894 9.04534 97.8146 9.00853 97.739 8.96501C97.314 8.77538 96.978 8.43 96.8 8.00001L96.768 7.89001L96.8 7.81201C96.8873 7.62202 96.9875 7.43825 97.1 7.26201C97.2341 7.06451 97.3868 6.88034 97.556 6.71201L97.618 6.64901L97.697 6.75901C97.7798 6.88128 97.8926 6.9802 98.0247 7.04623C98.1567 7.11226 98.3035 7.14318 98.451 7.13601C99.1497 7.05049 99.8358 6.88266 100.495 6.63601C100.966 6.46301 101.783 6.13601 101.795 6.10201C101.684 5.93809 101.563 5.78051 101.434 5.63001C101.318 5.4742 101.197 5.32213 101.072 5.17401C100.821 5.2278 100.574 5.30136 100.334 5.39401C100.136 5.48314 99.9221 5.53144 99.705 5.53601C99.4162 5.48494 99.1455 5.36026 98.919 5.17401C98.5428 4.92816 98.2391 4.58641 98.039 4.18401L97.977 4.04301L97.992 3.82301L98.008 3.58701L98.086 3.57101C98.1569 3.54443 98.2314 3.52859 98.307 3.52401C98.3867 3.51559 98.4672 3.52621 98.542 3.55501C98.8306 3.67208 99.1425 3.72068 99.453 3.69701C99.7323 3.67007 100.004 3.58997 100.253 3.46101L100.41 3.38201L100.394 3.32001C100.347 2.96446 100.206 2.62784 99.986 2.34501L99.892 2.23601L100.017 2.13601C100.205 1.97594 100.425 1.85796 100.662 1.79001C100.746 1.7747 100.832 1.76867 100.917 1.77201ZM107.172 1.74101C107.291 1.79167 107.395 1.87313 107.472 1.97701C107.52 2.02818 107.573 2.07534 107.629 2.11801C107.862 2.25629 108.044 2.46695 108.147 2.71801C108.186 2.81328 108.2 2.9173 108.186 3.0195C108.173 3.12171 108.132 3.21848 108.069 3.30001L108.022 3.36301L107.912 3.33201C107.644 3.2547 107.396 3.12248 107.182 2.94377C106.968 2.76506 106.794 2.54377 106.67 2.29401L106.592 2.13701L106.292 2.42001L106.01 2.72001L106.135 2.79901C106.301 2.87673 106.45 2.98787 106.572 3.12549C106.693 3.26312 106.785 3.4243 106.842 3.59901C106.846 3.76929 106.791 3.93568 106.686 4.07001C106.654 4.10997 106.613 4.14209 106.567 4.16392C106.52 4.18575 106.469 4.19672 106.418 4.19601C106.308 4.19601 106.276 4.18001 106.183 4.05401C105.891 3.60341 105.498 3.22685 105.035 2.95401L104.909 2.87601L105 2.79401C105.12 2.68056 105.275 2.61021 105.439 2.59401C105.553 2.59231 105.666 2.56533 105.769 2.51501C105.995 2.36215 106.175 2.15008 106.288 1.90201L106.351 1.77601L106.492 1.74501C106.57 1.72525 106.649 1.70956 106.728 1.69801C106.877 1.67056 107.031 1.68545 107.172 1.74101ZM112.246 1.23801C112.262 1.23801 112.277 1.28501 112.31 1.34801C112.406 1.50492 112.534 1.63906 112.687 1.74101C112.936 1.90104 113.224 1.98832 113.52 1.99301C113.805 1.99938 114.089 2.03084 114.368 2.08701C114.686 2.1489 114.991 2.266 115.268 2.43301C115.325 2.4685 115.389 2.49009 115.456 2.49601H115.551L115.661 2.63701C115.914 2.89906 116.102 3.21646 116.211 3.56401C116.238 3.67723 116.249 3.79378 116.242 3.91001C116.246 4.0219 116.23 4.13357 116.195 4.24001C116.164 4.31681 116.116 4.38533 116.054 4.44001C115.866 4.61563 115.64 4.74506 115.394 4.81801C115.276 4.84833 115.154 4.85881 115.032 4.84901C114.795 4.85681 114.56 4.81384 114.341 4.72301C114.076 4.61231 113.79 4.55925 113.503 4.56736C113.216 4.57546 112.934 4.64454 112.675 4.77001C112.384 4.93653 112.141 5.17476 111.968 5.46201L111.858 5.61901L111.747 6.07501C111.47 7.01614 111.306 7.98704 111.26 8.96701C111.26 9.37501 111.275 9.46701 111.37 9.57901C111.433 9.64201 111.433 9.64201 111.512 9.64201C111.621 9.64201 111.669 9.62701 111.826 9.50101C112.205 9.20085 112.604 8.92784 113.021 8.68401C113.193 8.57401 113.413 8.41601 113.492 8.35401C114.358 7.67926 115.447 7.35768 116.541 7.45401C116.698 7.47001 116.808 7.48501 117.341 7.56401C117.702 7.60878 118.053 7.71497 118.378 7.87801C118.773 8.09749 119.102 8.41882 119.331 8.80855C119.559 9.19828 119.679 9.64217 119.678 10.094C119.699 10.2996 119.683 10.5073 119.63 10.707C119.552 11.1265 119.39 11.5256 119.152 11.8797C118.914 12.2339 118.606 12.5355 118.247 12.766C118.09 12.866 117.587 13.112 117.194 13.285C116.059 13.7842 114.866 14.138 113.643 14.338C113.27 14.4119 112.891 14.4541 112.511 14.464H112.227L112.369 14.401C113.041 14.0996 113.692 13.7531 114.318 13.364C114.664 13.143 115.308 12.703 115.497 12.564C115.991 12.1894 116.416 11.7319 116.754 11.212C116.935 10.9214 117.093 10.6168 117.226 10.301C117.292 10.1174 117.3 9.91785 117.25 9.72937C117.199 9.5409 117.091 9.37254 116.942 9.24701C116.817 9.12201 116.817 9.12201 116.487 9.07501C116.205 9.04301 115.92 9.04301 115.638 9.07501C114.669 9.24506 113.797 9.76498 113.186 10.536C112.709 11.1184 112.178 11.6542 111.599 12.136C111.268 12.403 111.143 12.45 110.923 12.45C110.623 12.45 110.389 12.293 110.074 11.884C109.787 11.5067 109.53 11.1075 109.305 10.69C109.226 10.517 109.053 10.171 109.037 10.108C109.021 10.076 109.037 10.061 109.179 9.95101L109.336 9.82501L109.367 9.68401C109.5 9.11177 109.673 8.5497 109.886 8.00201C110.342 6.85411 111.01 5.80194 111.854 4.90001C112.057 4.71392 112.284 4.55555 112.529 4.42901L113.063 4.09901L112.953 3.98901C112.891 3.92601 112.797 3.84701 112.733 3.78401C112.263 3.29331 111.961 2.66631 111.869 1.99301L111.854 1.80401L111.9 1.69401C111.966 1.56213 112.051 1.44054 112.152 1.33301C112.2 1.28501 112.23 1.23801 112.246 1.23801ZM122.977 3.43801C123.135 3.48481 123.277 3.57409 123.388 3.69611C123.499 3.81814 123.574 3.96822 123.605 4.13001C123.64 4.67089 123.613 5.21394 123.527 5.74901C123.438 6.5157 123.396 7.28715 123.401 8.05901C123.382 8.51564 123.403 8.97305 123.464 9.42601C123.524 9.88715 123.613 10.3441 123.731 10.794C123.746 10.8888 123.79 10.9766 123.857 11.045C124.075 11.267 124.364 11.406 124.674 11.438H124.8L124.957 11.36C125.406 11.1422 125.787 10.8049 126.057 10.385C126.336 9.9793 126.645 9.59581 126.983 9.23801L127.094 9.12801L126.952 9.32801C126.659 9.74277 126.406 10.1848 126.197 10.648C125.899 11.3848 125.653 12.1413 125.459 12.912C125.412 13.1 125.349 13.289 125.333 13.336C125.277 13.458 125.176 13.5537 125.051 13.603C124.95 13.6363 124.842 13.6473 124.736 13.635C124.508 13.6418 124.281 13.6151 124.061 13.556C123.573 13.4197 123.129 13.16 122.771 12.802C122.342 12.3672 121.991 11.8618 121.734 11.308C121.593 11.0578 121.512 10.778 121.498 10.491C121.246 8.44425 121.451 6.36704 122.098 4.40901L122.16 4.18901L122.46 3.78001C122.741 3.40701 122.819 3.37501 122.977 3.43801ZM129.971 3.76901C130.069 3.76508 130.167 3.78679 130.254 3.83201C130.718 4.13266 131.138 4.49763 131.5 4.91601C132.071 5.56765 132.485 6.34192 132.71 7.17901C132.741 7.30501 132.805 7.49301 132.836 7.60401C133.001 8.08389 133.08 8.58879 133.071 9.09601C133.086 9.43707 133.039 9.77801 132.931 10.102C132.834 10.4034 132.685 10.6853 132.49 10.935C132.444 11.0127 132.374 11.0733 132.29 11.108C132.229 11.1338 132.166 11.1549 132.102 11.171C131.934 11.2015 131.761 11.1852 131.602 11.124C131.541 11.0372 131.483 10.9481 131.429 10.857C131.004 10.149 130.14 8.82901 129.763 8.34201C129.731 8.29501 129.684 8.27901 129.7 8.26401C129.716 8.24901 129.779 8.27901 129.872 8.29501C130.065 8.31914 130.261 8.31914 130.454 8.29501C130.612 8.24801 130.654 8.10601 130.612 7.91701C130.612 7.88601 130.58 7.71701 130.564 7.54101C130.41 6.35201 130.082 5.19219 129.59 4.09901C129.542 3.98901 129.495 3.91001 129.511 3.89401C129.586 3.85455 129.665 3.82304 129.747 3.80001C129.82 3.77964 129.895 3.76921 129.971 3.76901ZM137.811 1.44201C138.107 1.6277 138.431 1.76571 138.77 1.85101C139.209 1.89579 139.65 1.90616 140.09 1.88201C140.453 1.86715 140.816 1.88826 141.174 1.94501C141.344 1.96932 141.506 2.03414 141.646 2.13401C141.876 2.28612 142.087 2.46542 142.274 2.66801L142.432 2.82601L142.447 2.93601C142.471 3.27655 142.377 3.61489 142.18 3.89401C142.01 4.11131 141.781 4.27514 141.52 4.36601C141.208 4.45846 140.887 4.51647 140.562 4.53901H140.451L140.372 4.63301C140.153 4.8646 139.922 5.08489 139.681 5.29301C139.604 5.35755 139.531 5.42598 139.461 5.49801C139.364 5.61077 139.295 5.74521 139.261 5.89001C139.248 6.03772 139.258 6.18658 139.292 6.33101L139.308 6.40901L140.785 7.60901L142.31 6.96401C143.347 6.52401 143.85 6.31901 143.881 6.31901C143.965 6.31811 144.05 6.32379 144.133 6.33601C144.638 6.39904 145.12 6.5878 145.533 6.88501C146.096 7.32066 146.571 7.85959 146.933 8.47301C147.083 8.71979 147.214 8.97714 147.326 9.24301C147.401 9.46122 147.407 9.69748 147.342 9.91901C147.326 9.98201 147.295 10.013 147.185 10.107C146.998 10.2846 146.751 10.3856 146.493 10.39C146.26 10.38 146.033 10.3112 145.833 10.19C145.55 10.049 145.095 9.86001 144.843 9.76501L144.717 9.71801L144.435 9.73401C144.008 9.75143 143.585 9.82541 143.177 9.95401C143.12 9.97314 143.063 9.98883 143.004 10.001H142.942L143.083 9.90701C143.447 9.6713 143.789 9.40357 144.105 9.10701C144.383 8.82084 144.559 8.45058 144.605 8.05401L144.62 7.92801L144.494 7.78701C144.271 7.53939 144.035 7.30342 143.787 7.08001C143.609 6.94926 143.395 6.87914 143.174 6.88001C142.923 6.88001 142.906 6.88001 141.948 7.36701C141.647 7.5032 141.353 7.65542 141.068 7.82301C141.095 7.96834 141.137 8.11046 141.193 8.24701C141.273 8.44264 141.384 8.6235 141.524 8.78201C141.696 9.31857 141.811 9.87154 141.869 10.432C141.932 10.8959 141.953 11.3644 141.933 11.832C141.859 12.4916 141.545 13.1011 141.052 13.545C140.866 13.7335 140.623 13.8554 140.36 13.892C140.303 13.8972 140.248 13.9187 140.203 13.954C140.138 14.0067 140.062 14.0451 139.981 14.0668C139.9 14.0885 139.816 14.093 139.733 14.08C139.575 14.048 139.481 13.986 138.852 13.498C138.082 12.898 137.28 12.198 136.589 11.534C136.539 11.4778 136.481 11.4299 136.416 11.392C136.4 11.392 136.385 11.455 136.337 11.518C136.082 11.9625 135.713 12.3313 135.269 12.587L135.127 12.665L135.065 12.634C134.924 12.5489 134.797 12.443 134.687 12.32C134.569 12.1693 134.468 12.0056 134.387 11.832C134.323 11.691 134.15 11.078 134.025 10.575L133.962 10.308L134.009 10.166C134.139 9.6999 134.443 9.3011 134.857 9.05101L134.937 9.00301L135.078 9.06601C135.312 9.16749 135.518 9.32392 135.678 9.52201C135.698 9.54276 135.714 9.5673 135.725 9.59424C135.736 9.62118 135.741 9.64998 135.741 9.67901C135.741 9.85201 135.866 9.96201 136.087 9.99401C136.15 10.009 136.196 9.99401 136.464 9.88401C137.308 9.54156 138.123 9.13086 138.9 8.65601C139.1 8.53101 139.15 8.48301 139.15 8.46801C139.091 8.30693 139.012 8.15378 138.915 8.01201C138.829 7.89927 138.74 7.78922 138.648 7.68201C138.481 7.5296 138.342 7.34839 138.239 7.14701C138.135 6.94299 138.087 6.71552 138.098 6.48701V6.20501L138.364 5.79601C138.694 5.30901 138.993 4.88401 139.245 4.53901C139.328 4.44125 139.402 4.33577 139.465 4.22401C139.465 4.20801 139.418 4.19301 139.37 4.16201C138.75 3.82639 138.229 3.33271 137.861 2.73101C137.693 2.46361 137.565 2.17233 137.484 1.86701C137.485 1.83048 137.497 1.79519 137.52 1.76662C137.543 1.73806 137.575 1.71781 137.61 1.70901C137.736 1.66301 137.799 1.58401 137.799 1.49001C137.795 1.45801 137.795 1.44201 137.811 1.44201ZM139.3 8.81301C139.092 8.94338 138.892 9.08527 138.7 9.23801C138.387 9.47401 138.041 9.72501 137.931 9.80401C137.689 9.98309 137.467 10.1887 137.27 10.417C137.106 10.6155 136.963 10.8315 136.846 11.061C136.783 11.171 136.783 11.187 136.799 11.203C137.107 11.4578 137.458 11.6547 137.836 11.784C138.131 11.8779 138.438 11.9307 138.748 11.941H138.873L139.078 11.706C139.256 11.5493 139.378 11.3385 139.424 11.106C139.531 10.7496 139.579 10.3779 139.565 10.006C139.554 9.64672 139.486 9.29143 139.365 8.95301C139.349 8.90405 139.327 8.85709 139.3 8.81301ZM151.857 3.91001C152.024 3.96832 152.182 4.04762 152.329 4.14601C152.602 4.32858 152.824 4.57733 152.974 4.86901C153.07 5.04294 153.192 5.20165 153.335 5.34001C153.534 5.52757 153.777 5.66262 154.042 5.73301C154.199 5.78001 154.215 5.79601 154.263 5.95301C154.299 6.03713 154.315 6.12856 154.31 6.22001V6.39301L154.215 6.56601C153.939 7.13345 153.481 7.59265 152.915 7.87101C152.789 7.93401 152.758 7.98001 152.632 8.18501C152.481 8.43492 152.365 8.70401 152.286 8.98501C152.271 9.06401 152.223 9.12701 152.238 9.14301C152.428 9.10804 152.616 9.06027 152.8 9.00001L153.365 8.85901L153.46 8.74801C153.795 8.39592 153.991 7.93378 154.01 7.44801V7.27301H154.183L154.2 7.20001C154.231 7.10601 154.264 7.10601 154.326 7.15201L154.373 7.18401L154.468 6.99501L154.562 7.05801C154.758 7.17323 154.925 7.33025 155.053 7.51782C155.181 7.70539 155.265 7.91888 155.301 8.14301C155.332 8.37901 155.332 8.39401 155.144 8.58301C155.076 8.64081 155.013 8.70402 154.955 8.77201C154.955 8.78701 155.018 8.81801 155.08 8.85001C155.347 9.00792 155.604 9.18121 155.851 9.36901C156.304 9.72209 156.697 10.1466 157.014 10.626C157.253 11.0412 157.403 11.5016 157.454 11.978C157.48 12.0819 157.475 12.1911 157.439 12.292C157.351 12.6152 157.212 12.9226 157.029 13.203C156.729 13.6479 156.317 14.0059 155.835 14.241C154.986 14.555 154.216 14.841 153.535 15.074C152.935 15.274 151.979 15.592 151.979 15.574C152.079 15.5002 152.185 15.4333 152.294 15.374C152.991 14.9073 153.659 14.3984 154.294 13.85C154.719 13.5242 155.064 13.1047 155.3 12.624C155.41 12.4276 155.489 12.2155 155.535 11.995C155.597 11.7382 155.624 11.4741 155.614 11.21V10.832L155.535 10.738C155.281 10.3531 154.896 10.0738 154.451 9.95201C154.385 9.93741 154.318 9.92706 154.251 9.92101L154.189 9.90501L154 10.172C153.483 10.8955 152.938 11.598 152.365 12.278C152.165 12.529 152.165 12.529 152.208 12.75C152.284 12.9984 152.42 13.2248 152.602 13.41C152.664 13.4682 152.712 13.5389 152.745 13.6173C152.777 13.6958 152.793 13.7802 152.79 13.865C152.802 13.9481 152.798 14.0329 152.776 14.1141C152.754 14.1952 152.716 14.2711 152.664 14.337C152.599 14.4289 152.513 14.5043 152.413 14.557C152.266 14.4435 152.129 14.3173 152.004 14.18C151.833 13.9937 151.67 13.7995 151.517 13.598C151.485 13.5426 151.448 13.4901 151.407 13.441C151.391 13.425 151.313 13.488 151.14 13.583C150.91 13.7249 150.694 13.8879 150.495 14.07C150.423 14.1397 150.344 14.2027 150.26 14.258C150.059 14.3836 149.819 14.4339 149.584 14.4L149.458 14.384L149.317 14.258C149.105 14.0671 148.867 13.9084 148.609 13.787C148.52 13.753 148.444 13.6926 148.39 13.614C148.232 13.4143 148.104 13.1918 148.012 12.954C147.99 12.9038 147.974 12.851 147.965 12.797C148.011 12.7142 148.063 12.6353 148.122 12.561C148.729 11.7501 149.449 11.0304 150.26 10.424C150.369 10.345 150.448 10.282 150.46 10.266C150.481 10.0731 150.491 9.8791 150.491 9.68501C150.507 9.35501 150.554 9.04101 150.554 8.97801V8.86801H150.429C150.22 8.85028 150.014 8.80799 149.815 8.74201C149.452 8.62139 149.119 8.42275 148.841 8.16001L148.699 8.03501L148.872 7.86201C148.967 7.76801 149.062 7.65701 149.093 7.62601C149.14 7.56301 149.171 7.54801 149.344 7.51601C149.818 7.42406 150.277 7.27077 150.711 7.06001C150.837 6.99701 150.837 6.99701 150.884 6.88701C151.017 6.60042 151.112 6.29793 151.167 5.98701C151.251 5.47612 151.241 4.95409 151.136 4.44701C151.136 4.40001 151.136 4.36901 151.23 4.32201C151.293 4.27401 151.309 4.27401 151.324 4.30601C151.327 4.30972 151.33 4.31275 151.334 4.31484C151.338 4.31693 151.343 4.31801 151.348 4.31801C151.352 4.31801 151.357 4.31693 151.361 4.31484C151.365 4.31275 151.368 4.30972 151.371 4.30601C151.396 4.27132 151.417 4.23451 151.435 4.19601C151.519 4.07608 151.64 3.98743 151.78 3.94401C151.804 3.92911 151.83 3.91767 151.857 3.91001ZM150.364 11.3C150.32 11.3274 150.278 11.3589 150.239 11.394C149.854 11.7195 149.521 12.1007 149.249 12.525C149.173 12.6401 149.106 12.7612 149.049 12.887C149.202 12.9888 149.365 13.0733 149.536 13.139L149.631 13.17L149.757 13.107C150.12 12.9159 150.436 12.6476 150.684 12.321L150.747 12.227L150.558 11.771C150.505 11.6095 150.44 11.452 150.364 11.3ZM152.3 10.04C152.267 10.0632 152.23 10.0789 152.19 10.086C152.092 10.1145 152.001 10.1628 151.923 10.228C151.797 10.354 151.766 10.511 151.766 11.028V11.279L151.859 11.185C152.123 10.9023 152.355 10.591 152.551 10.257C152.637 10.1145 152.716 9.96765 152.787 9.81701C152.612 9.86019 152.447 9.93583 152.3 10.04ZM171.909 7.05301H172L172.3 7.50901C172.614 7.99601 172.614 8.00901 172.583 8.20101C172.572 8.30876 172.526 8.40992 172.452 8.48928C172.378 8.56863 172.281 8.62188 172.174 8.64101C171.881 8.66023 171.587 8.66023 171.294 8.64101C170.319 8.60901 169.109 8.64101 168.494 8.68801C167.029 8.79833 165.571 8.9819 164.125 9.23801C163.732 9.30101 162.019 9.63101 161.297 9.77201C161.158 9.8055 161.015 9.82129 160.872 9.81901C160.632 9.80149 160.4 9.72599 160.196 9.59901C159.719 9.2154 159.346 8.71821 159.111 8.15301L159.033 7.96501V7.61901C159.033 7.31901 159.033 7.27301 159.049 7.27301C159.122 7.27281 159.196 7.27816 159.268 7.28901C159.551 7.32713 159.83 7.39038 160.101 7.47801C160.723 7.68831 161.379 7.77891 162.035 7.74501C163.334 7.70174 164.63 7.5916 165.917 7.41501C166.624 7.33601 167.363 7.24201 167.552 7.22601C168.326 7.14699 169.101 7.08431 169.878 7.03801C170.2 7.02201 171.752 7.03801 171.909 7.05301ZM178.68 1.61501C178.806 1.63101 178.868 1.64701 179.136 1.83501C179.346 1.98283 179.536 2.15728 179.701 2.35401C179.88 2.57372 180.019 2.82408 180.109 3.09301C180.139 3.25007 180.129 3.41225 180.078 3.56401L180.031 3.67401L180.173 3.78401C180.439 3.98901 180.88 4.36601 181.147 4.60201L181.226 4.68001L181.21 4.75901C181.158 4.92202 181.073 5.07207 180.958 5.19901C180.775 5.37258 180.534 5.47292 180.282 5.48101C180.132 5.47645 179.983 5.51379 179.853 5.58884C179.722 5.66389 179.616 5.77371 179.544 5.90601C179.489 6.03009 179.456 6.1633 179.449 6.29901C179.449 6.34601 179.449 6.36201 179.606 6.45601C180.05 6.72849 180.431 7.093 180.723 7.52501L180.833 7.69801L180.801 7.83901C180.69 8.33996 180.446 8.8016 180.094 9.17501C179.812 9.50638 179.554 9.85835 179.324 10.228C179.261 10.322 179.167 10.464 179.119 10.528C178.554 11.204 178.319 11.707 178.443 11.958C178.5 12.038 178.584 12.094 178.68 12.115C178.728 12.1332 178.775 12.1542 178.821 12.178C179.071 12.2772 179.328 12.3561 179.591 12.414C179.942 12.4875 180.301 12.519 180.66 12.508C180.955 12.5016 181.25 12.4702 181.54 12.414C181.914 12.3966 182.273 12.2588 182.562 12.021C182.674 11.9253 182.759 11.8033 182.812 11.6661C182.864 11.5288 182.881 11.3806 182.862 11.235C182.874 10.981 182.826 10.7276 182.721 10.496C182.614 10.2069 182.551 9.90364 182.532 9.59601V9.40001L182.564 9.54201C182.646 9.89802 182.825 10.2242 183.082 10.484C183.271 10.6613 183.489 10.805 183.727 10.909C183.868 10.987 184.041 11.082 184.104 11.109C184.526 11.3525 184.904 11.6664 185.22 12.037L185.314 12.147V12.256C185.287 12.6709 185.101 13.0595 184.795 13.341C184.643 13.4846 184.467 13.6015 184.276 13.687C184.152 13.7475 184.02 13.79 183.884 13.813C183.427 13.9049 182.965 13.9717 182.501 14.013C181.81 14.06 181.117 14.06 180.426 14.013C179.282 13.9106 178.183 13.5156 177.235 12.866C176.897 12.651 176.633 12.3367 176.481 11.966L176.45 11.866H176.167C175.9 11.8796 175.634 11.8423 175.381 11.756C175.03 11.6393 174.712 11.44 174.454 11.175C174.218 10.939 174.14 10.861 174.108 10.703C174.056 10.5573 174.039 10.4009 174.061 10.2475C174.083 10.0941 174.142 9.94838 174.233 9.82301C174.266 9.79201 174.47 9.62301 174.69 9.46201C175.29 9.02764 175.882 8.58223 176.466 8.12601C176.827 7.82601 177.581 7.21401 177.581 7.19801C177.501 7.2121 177.422 7.23318 177.346 7.26101C177.22 7.29301 176.874 7.38701 176.591 7.46601L176.072 7.59201H175.8C175.663 7.5971 175.526 7.58636 175.391 7.56001C175.253 7.52017 175.121 7.46056 175 7.38301C174.86 7.27303 174.723 7.15796 174.591 7.03801C174.548 6.97969 174.522 6.91034 174.517 6.83798C174.511 6.76561 174.526 6.69317 174.56 6.62901L174.607 6.56601L174.858 6.47201C175.351 6.31808 175.817 6.09014 176.241 5.79601C176.694 5.43393 177.134 5.05672 177.561 4.66501C177.771 4.4797 177.936 4.2486 178.042 3.98955C178.149 3.7305 178.194 3.45044 178.175 3.17101C178.195 2.84227 178.119 2.51484 177.955 2.22901L177.876 2.08701L177.955 2.00801C178.033 1.91401 178.033 1.89801 178.018 1.89801C177.971 1.89801 177.986 1.86701 178.064 1.80401C178.195 1.69946 178.353 1.63396 178.52 1.61501H178.68ZM177.061 8.89201C176.385 9.09029 175.78 9.47746 175.316 10.008C175.19 10.165 175.159 10.228 175.159 10.308C175.159 10.355 175.175 10.371 175.222 10.418C175.6 10.6134 176.024 10.7003 176.448 10.669H176.748L176.779 10.606C176.796 10.575 176.879 10.449 176.937 10.339C176.995 10.229 177.204 9.89901 177.251 9.80501C177.357 9.64625 177.457 9.48347 177.551 9.31701C177.619 9.2094 177.652 9.08327 177.646 8.95601C177.635 8.91847 177.615 8.8843 177.588 8.8568C177.56 8.8293 177.526 8.80939 177.488 8.79901C177.406 8.78201 177.438 8.76701 177.061 8.89201ZM184.479 4.90001C184.85 4.99668 185.193 5.18004 185.479 5.43501C185.91 5.77798 186.245 6.22553 186.454 6.73501C186.484 6.8871 186.473 7.04433 186.423 7.19101C186.364 7.29638 186.283 7.3876 186.185 7.45826C186.088 7.52892 185.975 7.5773 185.857 7.60001C185.651 7.64532 185.436 7.62324 185.244 7.53701C184.961 7.3775 184.641 7.29605 184.317 7.30101H184.112L184.207 7.17501C184.254 7.09701 184.317 6.97501 184.349 6.90801C184.392 6.82483 184.418 6.73418 184.427 6.64101C184.434 6.51187 184.411 6.38287 184.362 6.26325C184.313 6.14363 184.238 6.03632 184.143 5.94901C184.076 5.87002 183.993 5.80673 183.899 5.76368C183.806 5.72063 183.703 5.69888 183.6 5.70001C183.364 5.71565 183.144 5.82341 182.987 6.00001C182.788 6.19651 182.623 6.42502 182.5 6.67601C182.4 6.84902 182.29 7.01597 182.17 7.17601C182.174 7.00144 182.195 6.82766 182.232 6.65701C182.293 6.33425 182.419 6.02731 182.603 5.75496C182.786 5.48261 183.024 5.25057 183.3 5.07301C183.37 5.03007 183.444 4.99327 183.521 4.96301C183.552 4.96301 183.851 4.90001 183.944 4.88401C184.122 4.86632 184.302 4.8717 184.479 4.90001Z" fill="black"/>
</g>
<g id="logotype">
<path id="Vector_2" d="M34.646 87.228C34.6599 87.792 34.4962 88.3461 34.178 88.812C33.8492 89.2718 33.3957 89.6278 32.871 89.838C32.2602 90.085 31.6058 90.2061 30.947 90.194C30.747 90.194 30.4993 90.181 30.204 90.155C29.8094 90.1112 29.4184 90.0394 29.034 89.94C28.5136 89.8112 28.0056 89.6365 27.516 89.418V87.018C27.9806 87.3089 28.4671 87.5633 28.971 87.779C29.4561 87.9817 29.9773 88.0838 30.503 88.079C30.8485 88.1256 31.1985 88.0359 31.479 87.829C31.6077 87.705 31.6867 87.5382 31.701 87.36C31.6982 87.2261 31.6619 87.0951 31.5953 86.9789C31.5288 86.8627 31.4341 86.7651 31.32 86.695C30.9762 86.4662 30.6071 86.278 30.22 86.134C29.7288 85.9323 29.2572 85.6859 28.811 85.398C28.4132 85.1391 28.0753 84.7982 27.82 84.398C27.5577 83.9732 27.4246 83.4812 27.437 82.982C27.4252 82.4667 27.5677 81.9596 27.8462 81.5259C28.1247 81.0922 28.5265 80.7516 29 80.548C29.6114 80.2774 30.2757 80.1472 30.944 80.167C31.4521 80.163 31.9589 80.2164 32.455 80.326C32.8471 80.4093 33.2307 80.5285 33.601 80.682C33.8151 80.7697 34.0224 80.8733 34.221 80.992V83.282C33.8016 82.9838 33.3546 82.7266 32.886 82.514C32.3917 82.2874 31.8538 82.1717 31.31 82.175C31.0267 82.1494 30.7435 82.2245 30.51 82.387C30.4321 82.4494 30.3693 82.5288 30.3265 82.6191C30.2837 82.7093 30.262 82.8081 30.263 82.908C30.2638 83.0046 30.2864 83.0997 30.3292 83.1863C30.372 83.2729 30.4338 83.3487 30.51 83.408C30.7823 83.613 31.0777 83.7855 31.39 83.922C32.0079 84.204 32.6089 84.5215 33.19 84.873C33.6061 85.1232 33.967 85.4552 34.251 85.849C34.5226 86.2565 34.6607 86.7385 34.646 87.228ZM50 90.067H46.985L46.185 88.087H41.947L41.137 90.067H38.121L42.44 80.3H45.7L50 90.067ZM45.512 86.389L44.081 82.824L42.637 86.389H45.512ZM65.484 90.067H62.539V84.409L59.883 87.686H59.65L56.987 84.409V90.067H54.126V80.3H56.8L59.8 83.964L62.814 80.3H65.484V90.067ZM81 85.691C81.0217 86.4317 80.8606 87.1663 80.531 87.83C80.2424 88.3938 79.8158 88.8754 79.291 89.23C78.7833 89.5695 78.2212 89.8195 77.629 89.969C77.0477 90.1182 76.4501 90.1941 75.85 90.195C75.0272 90.1958 74.2105 90.0526 73.437 89.772C72.6574 89.4925 71.9756 88.993 71.474 88.334C70.9193 87.5681 70.6411 86.6366 70.685 85.692V80.3H73.623V84.93C73.6053 85.4751 73.6999 86.018 73.901 86.525C74.0543 86.9074 74.3259 87.2308 74.676 87.448C75.0332 87.6391 75.432 87.7391 75.837 87.7391C76.2421 87.7391 76.6409 87.6391 76.998 87.448C77.3493 87.2345 77.6222 86.9132 77.776 86.532C77.9783 86.026 78.0733 85.4836 78.055 84.939V80.3H81V85.691ZM95.649 90.067H92.485L91.718 88.333C91.5161 87.8428 91.2609 87.3763 90.957 86.942C90.7919 86.6983 90.5643 86.5034 90.298 86.378C90.0316 86.2876 89.7512 86.246 89.47 86.255H89.139V90.067H86.193V80.3H91.2C91.8958 80.2712 92.5854 80.4423 93.187 80.793C93.6647 81.0801 94.0518 81.496 94.304 81.993C94.518 82.4076 94.6346 82.8655 94.645 83.332C94.6593 83.7666 94.5611 84.1975 94.36 84.583C94.2146 84.8702 94.0101 85.1234 93.76 85.326C93.5336 85.4903 93.296 85.6387 93.049 85.77C93.3456 85.9381 93.6092 86.1587 93.827 86.421C94.1583 86.8988 94.4382 87.4103 94.662 87.947L95.649 90.067ZM91.649 83.387C91.6676 83.2042 91.6361 83.0197 91.5579 82.8534C91.4797 82.6872 91.3577 82.5453 91.205 82.443C90.7543 82.2323 90.2573 82.1401 89.761 82.175H89.141V84.529H89.775C90.2788 84.5685 90.7847 84.4876 91.251 84.293C91.3926 84.1917 91.5042 84.0541 91.5739 83.8946C91.6436 83.7351 91.6689 83.5597 91.647 83.387H91.649ZM111.1 90.067H108.084L107.284 88.087H103.043L102.232 90.067H99.217L103.54 80.3H106.8L111.1 90.067ZM106.611 86.389L105.181 82.824L103.736 86.389H106.611ZM118.179 90.067H115.233V80.3H118.179V90.067ZM141.3 90.067H138.679L133.612 84.627V90.067H130.7V80.3H133.314L138.366 85.711V80.3H141.3V90.067ZM153.974 90.067H146.61V80.3H153.854V82.26H149.554V84.05H153.654V86.016H149.554V88.1H153.972L153.974 90.067ZM168.041 89.376C167.83 89.457 167.649 89.522 167.499 89.576C167.349 89.63 167.204 89.676 167.065 89.716C166.926 89.756 166.727 89.816 166.465 89.878C166.025 89.981 165.579 90.0601 165.13 90.115C164.665 90.1701 164.198 90.1972 163.73 90.196C162.786 90.2056 161.851 90.0208 160.982 89.653C160.157 89.3047 159.454 88.7184 158.963 87.969C158.437 87.132 158.173 86.157 158.205 85.169C158.207 84.451 158.339 83.7394 158.596 83.069C158.831 82.417 159.245 81.8444 159.79 81.417C160.199 81.0933 160.651 80.8287 161.133 80.631C161.559 80.4571 162.005 80.3352 162.461 80.268C162.935 80.204 163.413 80.1733 163.892 80.176C164.606 80.1622 165.32 80.2273 166.02 80.37C166.578 80.4987 167.191 80.669 167.859 80.881V83.192C167.414 82.9321 166.945 82.7151 166.459 82.544C165.863 82.3546 165.239 82.2663 164.614 82.283C163.902 82.2485 163.194 82.4159 162.573 82.766C162.111 83.0353 161.741 83.4365 161.509 83.918C161.318 84.3252 161.216 84.7683 161.209 85.218C161.204 85.6945 161.323 86.1641 161.554 86.581C161.797 87.0089 162.159 87.3565 162.597 87.581C163.118 87.8451 163.696 87.9747 164.28 87.958C164.684 87.9549 165.087 87.9052 165.48 87.81V86.649H164.156V84.684H168.056L168.041 89.376ZM176.214 90.067H173.269V80.3H176.214V90.067Z" fill="black"/>
<path id="Vector_3" d="M26.054 29.012C27.3324 29.7517 28.4809 30.6959 29.454 31.807L29.7 32.151V32.409C29.7022 32.58 29.6666 32.7493 29.5957 32.9049C29.5248 33.0605 29.4204 33.1985 29.29 33.309C29.1762 33.3938 29.0837 33.5039 29.0198 33.6306C28.956 33.7573 28.9225 33.8971 28.922 34.039C28.922 34.384 28.922 34.384 29.331 34.298C29.575 34.2623 29.8216 34.2479 30.068 34.255C30.7644 34.2974 31.427 34.5696 31.952 35.029C32.813 35.588 33.752 36.19 34.164 36.405C34.5688 36.5668 34.9325 36.8165 35.229 37.136C35.5337 37.423 35.761 37.7822 35.8898 38.1804C36.0186 38.5787 36.0448 39.003 35.966 39.414C35.9369 39.6157 35.8348 39.7996 35.679 39.931C35.2055 40.4284 34.6138 40.7978 33.959 41.005C33.444 41.0921 32.918 41.0921 32.403 41.005C31.3938 40.7924 30.36 40.72 29.331 40.79C28.799 40.833 28.717 40.919 28.717 41.135C28.717 41.221 28.635 41.952 28.553 42.683C28.308 45.177 27.939 47.883 27.57 50.083C27.215 52.5697 26.2267 54.9233 24.7 56.918C23.9497 57.8279 23.1428 58.6896 22.284 59.498C20.9737 60.6551 19.4601 61.5591 17.82 62.164C17.451 62.293 15.526 62.895 12.537 63.798C11.268 64.185 10.161 64.529 10.037 64.572C9.913 64.615 9.832 64.658 9.832 64.615C9.832 64.572 10.037 64.486 10.241 64.357C11.9325 63.2896 13.4868 62.0187 14.869 60.573C17.7799 57.5801 19.9415 53.941 21.177 49.953C21.8897 47.9923 22.2903 45.9319 22.364 43.847C22.3994 43.0439 22.3857 42.2394 22.323 41.438C22.282 41.396 19.823 41.998 18.556 42.338C17.289 42.678 14.501 43.628 14.378 43.714C14.337 43.757 14.296 44.914 14.214 46.38C13.887 52.702 13.846 52.788 13.514 53.303C13.3951 53.525 13.2179 53.7103 13.0016 53.8391C12.7852 53.9679 12.5378 54.0353 12.286 54.034C11.907 54.0275 11.5357 53.9255 11.2064 53.7377C10.8771 53.5498 10.6005 53.282 10.402 52.959C10.2928 52.7778 10.1698 52.6053 10.034 52.443C9.52991 51.8205 9.15402 51.1044 8.928 50.336C8.8508 49.9832 8.8232 49.6214 8.846 49.261C8.82388 48.6494 8.90709 48.0385 9.092 47.455L9.215 47.068L9.133 46.639C9.092 46.38 9.051 46.122 9.051 46.08C9.051 45.994 9.01 45.994 8.764 45.994C8.66426 45.9809 8.56284 45.9937 8.46949 46.0312C8.37614 46.0687 8.29401 46.1296 8.231 46.208C7.65545 46.6963 6.98655 47.0624 6.265 47.284C5.93041 47.3648 5.58539 47.3938 5.242 47.37C4.87342 47.3768 4.50504 47.348 4.142 47.284C3.67918 47.1577 3.24702 46.9382 2.872 46.639C2.10255 46.09 1.42512 45.4224 0.865003 44.661L0.578003 44.273V43.414H0.700003C0.741003 43.414 0.782003 43.414 0.782003 43.026V42.6L0.905003 42.514C1.08241 42.3701 1.21095 42.1748 1.273 41.955C1.31434 41.783 1.35534 41.697 1.396 41.697C1.437 41.697 1.847 41.61 2.257 41.524C4.31174 41.0784 6.32522 40.4602 8.276 39.676C8.768 39.46 8.809 39.417 8.85 38.644C8.91151 37.8999 8.91151 37.1521 8.85 36.408C8.72298 35.1441 8.39097 33.9092 7.867 32.752C7.7949 32.6013 7.7399 32.443 7.703 32.28V32.151H8.235V32.021C8.235 31.893 8.235 31.893 8.358 31.893H8.481V31.593C8.481 31.421 8.481 31.334 8.522 31.293C8.86681 31.1887 9.22993 31.1594 9.587 31.207C9.84801 31.2405 10.0991 31.3284 10.324 31.465C11.6457 32.1079 12.8614 32.9489 13.929 33.959C14.338 34.303 14.379 34.346 14.461 35.034C14.5362 35.8222 14.5086 36.6169 14.379 37.398L14.338 37.527L15.198 37.27C17.5729 36.6653 19.9792 36.1916 22.406 35.851L22.774 35.808V35.463C22.774 35.249 22.897 34.647 22.974 34.087C23.051 33.527 23.097 33.013 23.097 32.927C23.1266 32.6305 23.0696 32.3318 22.933 32.067C22.7661 31.7784 22.5242 31.5403 22.233 31.378C22.069 31.293 21.987 31.207 21.66 30.734C21.518 30.5463 21.3945 30.3454 21.291 30.134C21.8587 29.7239 22.4785 29.3914 23.134 29.145C23.334 29.059 23.708 28.887 23.79 28.845C24.0123 28.6857 24.2622 28.5691 24.527 28.501C24.866 28.41 25.153 28.5 26.054 29.012ZM50.544 30.259C51.0164 30.3674 51.4715 30.541 51.896 30.775C52.0661 30.8871 52.2653 30.9469 52.469 30.947C52.5195 30.9278 52.5749 30.9258 52.6266 30.9414C52.6783 30.9569 52.7235 30.9891 52.755 31.033C52.837 31.076 52.878 31.162 52.919 31.162C53.8699 31.9071 54.7601 32.7267 55.581 33.613C56.359 34.387 56.481 34.513 56.605 34.773C56.673 34.9691 56.7277 35.1696 56.769 35.373C56.851 35.718 56.769 35.804 56.523 35.89C55.9316 36.2323 55.4381 36.721 55.09 37.309C54.5405 38.3272 54.048 39.3751 53.615 40.448C52.8922 42.2388 52.2909 44.0763 51.815 45.948C51.3821 47.617 50.8348 49.2542 50.177 50.848C50.096 51.063 49.977 51.278 50.014 51.322C50.096 51.365 58.491 50.422 59.147 50.289H59.27L58.9 49.472C58.4579 48.2873 57.7588 47.2153 56.853 46.333C56.72 46.2576 56.6063 46.1523 56.5209 46.0255C56.4355 45.8986 56.3808 45.7536 56.361 45.602C56.361 45.516 56.561 45.559 56.689 45.602C56.771 45.645 56.73 45.602 56.73 45.473V45.259C56.771 45.216 56.812 45.216 56.93 45.345L57.053 45.473L57.012 45.345V45.216L57.298 45.173C58.2321 45.1083 59.1661 45.3013 59.998 45.731C61.4606 46.6742 62.7958 47.8014 63.971 49.085C64.788 49.9928 65.502 50.9882 66.1 52.053C67.0909 53.5757 67.9924 55.1547 68.8 56.782C68.882 56.954 69.127 57.47 69.332 57.943C69.701 58.76 69.701 58.803 69.701 59.104C69.7091 59.4688 69.5771 59.8227 69.332 60.093C69.209 60.222 69.132 60.308 69.132 60.393C69.1342 60.509 69.1204 60.6248 69.091 60.737C69.051 60.952 69.051 60.952 68.723 61.167C68.2217 61.4979 67.685 61.772 67.123 61.984C66.631 62.156 66.59 62.156 66.057 61.812C65.3242 61.3832 64.7825 60.6912 64.542 59.877C64.0161 58.6384 63.2976 57.4909 62.413 56.477L62.085 56.09H61.553C57.8115 56.1964 54.0854 56.6135 50.413 57.337C49.963 57.423 49.389 57.509 49.102 57.552C47.6884 57.7915 46.3315 58.2909 45.1 59.025C44.9 59.154 44.485 59.325 44.158 59.498C43.2297 59.8164 42.3882 60.3463 41.7 61.046C41.4271 61.3038 41.2291 61.6307 41.127 61.992C41.0855 62.2061 41.0022 62.41 40.882 62.592C40.483 62.3434 40.0996 62.0706 39.734 61.775C39.1042 61.2794 38.5032 60.7482 37.934 60.184L37.442 59.668L37.36 59.195C37.2973 58.875 37.2151 58.559 37.114 58.249L36.992 57.776L37.073 57.303C37.114 57.045 37.237 56.529 37.319 56.186C37.442 55.586 37.483 55.498 37.566 55.411C37.6577 55.3517 37.7403 55.2792 37.811 55.196C37.975 55.067 37.975 55.067 37.975 54.766C37.9658 54.6164 37.9947 54.4669 38.0591 54.3315C38.1234 54.1961 38.2211 54.0793 38.343 53.992L38.466 53.906L38.753 54.079C39.365 54.376 40.0389 54.5231 40.719 54.508H41.169L41.369 54.336C41.8687 53.8833 42.2367 53.3038 42.434 52.659C42.516 52.444 42.803 51.627 43.134 50.853C45.018 45.995 46.86 41.053 48.458 36.363C48.786 35.288 49.031 34.6 49.195 33.998L49.277 33.783L48.908 33.267C48.54 32.707 47.803 31.633 47.803 31.59C47.803 31.547 47.803 31.547 47.844 31.547C47.885 31.547 47.967 31.461 48.008 31.418C48.0308 31.3872 48.0612 31.363 48.0963 31.3477C48.1315 31.3324 48.17 31.3267 48.208 31.331C48.331 31.331 48.372 31.289 48.372 31.203C48.413 31.031 48.454 31.031 48.536 31.031C48.736 31.074 48.822 31.031 48.822 30.816C48.822 30.687 48.863 30.644 48.986 30.644C49.068 30.644 49.068 30.644 49.109 30.601C49.109 30.558 49.273 30.515 49.437 30.472C49.5923 30.4286 49.7433 30.3711 49.888 30.3C50.094 30.173 50.175 30.173 50.544 30.259ZM95.715 41.567C95.756 41.697 95.797 41.697 95.797 41.567C95.797 41.481 95.961 41.567 96.943 42.083C97.8536 42.5919 98.7982 43.0377 99.77 43.417C100.1 43.4482 100.406 43.6016 100.629 43.847C101.91 44.8701 103.053 46.0553 104.029 47.373C104.09 47.5004 104.121 47.6398 104.121 47.781C104.121 47.9222 104.09 48.0616 104.029 48.189C103.983 48.2829 103.955 48.3847 103.947 48.489C103.932 48.5854 103.89 48.6754 103.825 48.748C103.743 48.833 103.702 48.876 103.374 48.876C102.972 48.8736 102.577 48.9771 102.228 49.176C102.121 49.211 102.023 49.2671 101.938 49.3409C101.854 49.4148 101.785 49.505 101.736 49.606C101.309 50.356 100.9 51.1159 100.508 51.885C100.209 52.5003 99.8371 53.0777 99.401 53.605C97.436 56.271 94.692 59.797 93.832 60.743C93.3177 61.2789 92.6871 61.6894 91.989 61.943C91.789 62.029 91.375 62.201 91.129 62.287C90.5082 62.529 89.8626 62.702 89.204 62.803C88.6378 62.8849 88.0768 62.9998 87.524 63.147C85.6661 63.547 83.7733 63.7631 81.873 63.792C80.768 63.835 78.966 63.835 78.761 63.792C78.679 63.792 78.679 63.706 78.72 63.663C78.7812 63.5436 78.8095 63.41 78.802 63.276C78.802 63.104 78.761 62.976 78.802 63.018C78.8754 63.0269 78.9499 63.02 79.0204 62.9977C79.091 62.9755 79.156 62.9384 79.211 62.889C79.3805 62.7993 79.5588 62.7272 79.743 62.674C80.4751 62.479 81.1679 62.159 81.791 61.728C81.9948 61.5875 82.2147 61.472 82.446 61.384C83.696 60.8432 84.8898 60.1807 86.01 59.406C87.3182 58.4562 88.5133 57.3597 89.572 56.138C91.2407 54.0855 92.6699 51.8494 93.832 49.473L94.2 48.7H94.077C93.4002 48.593 92.7134 48.5641 92.03 48.614H90.145L89.285 48.571L88.057 48.786C86.664 49.043 85.23 49.345 84.534 49.473C84.125 49.559 83.552 49.645 83.347 49.688C82.2737 49.8249 81.217 50.0698 80.193 50.419C79.742 50.591 78.76 50.978 78.555 51.064C78.0286 51.3197 77.5658 51.6893 77.2 52.146C77.118 52.274 77 52.403 76.955 52.403C76.7134 52.3235 76.4792 52.2231 76.255 52.103C75.0478 51.4668 73.9318 50.671 72.937 49.737C72.527 49.308 72.446 49.221 72.527 49.178C72.568 49.135 72.527 49.049 72.405 48.92C72.0856 48.5379 71.8734 48.0779 71.79 47.587C71.7483 47.329 71.7623 47.0651 71.831 46.813C71.913 46.856 71.954 46.771 71.872 46.728C71.8528 46.7123 71.8373 46.6926 71.8266 46.6702C71.816 46.6478 71.8104 46.6233 71.8104 46.5985C71.8104 46.5737 71.816 46.5492 71.8266 46.5268C71.8373 46.5044 71.8528 46.4847 71.872 46.469C71.8877 46.4517 71.8995 46.4312 71.9065 46.409C71.9136 46.3867 71.9158 46.3632 71.913 46.34C71.913 46.297 71.954 46.297 71.995 46.254C72.036 46.211 72.036 46.125 72.036 45.997C72.036 45.825 72.077 45.738 72.2 45.781C72.241 45.781 72.282 45.781 72.282 45.695C72.282 45.566 72.405 45.48 72.482 45.523C72.5927 45.5462 72.7022 45.5749 72.81 45.609C73.3058 45.7262 73.7772 45.9292 74.203 46.209L74.326 46.295L74.981 46.081C76.4583 45.6278 77.9468 45.2117 79.445 44.833C82.3851 44.0766 85.366 43.4883 88.373 43.071C88.783 43.027 89.519 42.898 89.973 42.812C90.997 42.641 92.473 42.426 93.782 42.296C94.846 42.167 94.929 42.124 95.011 41.953C95.1018 41.7829 95.2453 41.6467 95.42 41.565C95.633 41.481 95.715 41.481 95.715 41.567ZM93.258 29.657C93.3027 29.6782 93.3515 29.6893 93.401 29.6893C93.4505 29.6893 93.4993 29.6782 93.544 29.657C93.79 29.528 93.913 29.528 94.281 29.786C95.31 30.4805 96.258 31.2882 97.107 32.194C97.807 32.882 97.886 33.054 97.927 33.57C97.9348 33.7689 97.8772 33.9649 97.763 34.128C97.5312 34.5262 97.2257 34.8768 96.863 35.161C96.714 35.2424 96.5764 35.3433 96.454 35.461C96.1405 35.7684 95.7632 36.0033 95.349 36.149C95.1185 36.1936 94.8833 36.2084 94.649 36.193C94.3089 36.1855 93.9719 36.2592 93.666 36.408C92.3537 36.8913 90.9948 37.2368 89.611 37.439C87.6749 37.8199 85.7613 38.3077 83.879 38.9C83.0619 39.1528 82.2259 39.3397 81.379 39.459L80.765 39.545L80.314 39.202C79.1474 38.3895 78.0742 37.4505 77.114 36.402C76.214 35.455 76.132 35.369 76.05 35.155C75.9231 34.8413 75.8945 34.4964 75.968 34.166C76.0809 33.7866 76.2461 33.4248 76.459 33.091C76.5178 33.0147 76.5598 32.9268 76.582 32.833C76.582 32.79 76.664 32.79 76.705 32.79C76.7839 32.7697 76.854 32.7245 76.905 32.661C77.105 32.446 77.314 32.446 77.683 32.703C78.4613 33.2598 79.3875 33.5731 80.344 33.603C81.561 33.4846 82.7665 33.2689 83.949 32.958C85.506 32.614 87.061 32.27 88.127 32.011C89.0142 31.7955 89.8783 31.4941 90.707 31.111C91.689 30.681 92.139 30.511 92.18 30.466C92.268 30.3184 92.3964 30.199 92.55 30.122C92.5821 30.1212 92.6136 30.113 92.642 30.0981C92.6704 30.0831 92.6951 30.0619 92.714 30.036C92.754 29.992 92.795 29.95 92.836 29.95C92.9587 29.95 93.0407 29.864 93.082 29.692C93.094 29.614 93.135 29.614 93.258 29.657ZM131.795 30.431H133.105L133.434 30.818C134.418 31.9269 135.32 33.1053 136.134 34.344L136.38 34.688L136.216 34.817C135.881 35.1081 135.509 35.3538 135.11 35.548C134.527 35.8441 133.988 36.2204 133.51 36.666C131.26 38.4359 128.993 40.1846 126.71 41.912C126.382 42.138 126.068 42.382 125.767 42.643C125.685 42.729 125.685 42.729 126.341 43.417C126.71 43.804 127.241 44.317 127.528 44.578C128.102 45.05 128.228 45.178 128.347 45.478C128.555 46.1066 128.555 46.7854 128.347 47.414C128.21 48.1365 128.143 48.8706 128.147 49.606C128.065 52.186 128.024 53.648 127.983 56.959V60.485L127.819 60.958C127.634 61.6187 127.313 62.2337 126.878 62.764C126.469 62.9773 126.107 63.2696 125.812 63.624C125.444 64.011 125.362 64.097 125.157 64.183C124.998 64.2324 124.833 64.2613 124.666 64.269H124.42L124.093 63.925C123.367 63.1097 122.735 62.2154 122.209 61.259C122.074 60.9923 121.924 60.7339 121.758 60.485C121.416 59.9682 121.153 59.4029 120.979 58.808L120.898 58.421L121.02 58.163C121.13 57.9816 121.253 57.809 121.39 57.647L121.636 57.389L121.676 56.873C121.975 54.4045 122.139 51.9214 122.168 49.435V47.5L121.963 47.415C121.581 47.2895 121.211 47.1309 120.857 46.941C120.701 46.8323 120.515 46.7728 120.325 46.77C119.744 46.8415 119.178 47.001 118.645 47.243C115.917 48.2316 113.126 49.0358 110.291 49.65C108.98 49.95 106.727 50.424 106.686 50.381C106.645 50.338 108.486 48.833 109.963 47.629C111.069 46.729 113.035 45.222 114.223 44.318C115.123 43.63 115.574 43.287 117.99 41.48C121.64 38.7661 125.076 35.7763 128.269 32.537L128.762 32.02L128.639 31.505L128.516 30.946L128.639 30.817C128.762 30.688 128.762 30.688 129.089 30.688C129.283 30.6868 129.476 30.6578 129.662 30.602C129.785 30.559 130.031 30.516 130.194 30.473C130.726 30.4255 131.261 30.4114 131.795 30.431ZM149.445 28.883C149.998 29.1852 150.508 29.5609 150.961 30C151.668 30.6821 152.25 31.4829 152.681 32.366L152.845 32.752L152.968 34.559C153.05 35.548 153.05 36.322 153.09 36.365C153.13 36.408 153.29 36.365 153.459 36.451C154.559 36.837 155.138 37.439 155.138 38.127V38.427L153.746 39.889L152.354 41.308L152.189 41.867C152.107 42.167 152.025 42.426 152.066 42.467C152.107 42.508 152.312 42.251 152.64 41.951C156.899 38.08 159.807 36.145 161.94 35.673C163.332 35.362 164.784 35.4663 166.117 35.973C167.015 36.5124 167.816 37.1974 168.489 38C170.313 39.8644 171.503 42.2565 171.889 44.836C172.006 45.8787 172.02 46.9306 171.93 47.976C171.689 49.8603 171.135 51.6911 170.291 53.393C170.091 53.823 169.8 54.425 169.636 54.683L169.35 55.156L169.595 55.629C170.152 56.7411 170.63 57.8906 171.028 59.069C171.164 59.4773 171.273 59.8938 171.356 60.316C171.115 60.5569 170.839 60.7593 170.537 60.916C170.111 61.1457 169.628 61.2497 169.145 61.216C168.571 61.216 168.407 61.044 167.875 60.055C167.69 59.6995 167.485 59.3549 167.261 59.023C167.108 59.1331 166.97 59.2632 166.852 59.41C165.712 60.5481 164.281 61.3513 162.715 61.732C162.27 61.8213 161.815 61.8503 161.363 61.818C161.035 61.8411 160.705 61.8266 160.38 61.775C159.975 61.4116 159.591 61.0239 159.233 60.614C157.973 59.0994 157.252 57.2083 157.186 55.239C157.162 54.4614 157.217 53.6834 157.35 52.917C157.408 52.6334 157.449 52.3465 157.473 52.058C157.514 51.5436 157.624 51.0371 157.8 50.552C158.102 49.8642 158.565 49.2597 159.151 48.79C159.521 48.531 159.725 48.49 160.751 48.49C161.165 48.4677 161.58 48.5116 161.98 48.62C162.993 48.8799 163.915 49.4153 164.642 50.167L164.969 50.511L165.092 50.296C165.772 49.0018 166.334 47.649 166.772 46.254C167.048 45.2353 166.946 44.151 166.484 43.202C166.413 42.9823 166.297 42.7802 166.141 42.6095C165.986 42.4387 165.796 42.3032 165.584 42.212C164.555 41.5232 163.342 41.1636 162.104 41.181C160.822 41.1782 159.563 41.5194 158.458 42.169C157.391 42.7031 156.443 43.4493 155.674 44.362C154.219 46.2092 152.955 48.1987 151.9 50.3L151.245 51.59L151.204 52.278C150.933 55.3527 150.906 58.444 151.123 61.523C151.163 62.211 151.163 62.297 150.836 62.684C150.724 62.8314 150.582 62.9535 150.42 63.0424C150.258 63.1313 150.078 63.185 149.894 63.2C149.607 63.243 149.607 63.243 149.443 63.157C148.82 62.7045 148.326 62.0967 148.01 61.394C147.576 59.9871 147.355 58.5233 147.354 57.051C147.313 56.451 147.231 55.761 147.231 55.551V55.164L145.631 56.884C144.77 57.83 143.91 58.69 143.788 58.819L143.542 59.077L143.337 58.991C142.642 58.5578 142.043 57.9871 141.576 57.314C140.978 56.3951 140.602 55.3501 140.476 54.261C140.435 53.874 140.435 53.874 140.517 53.702C140.558 53.616 140.762 53.186 140.803 53.057C140.864 52.8342 140.977 52.6288 141.131 52.457C141.216 52.3727 141.319 52.3093 141.433 52.272C141.547 52.2347 141.668 52.2244 141.786 52.242C142.031 52.285 142.236 52.157 142.523 51.898C142.892 51.554 143.138 51.469 143.423 51.598C143.483 51.5998 143.544 51.5894 143.6 51.5674C143.656 51.5454 143.708 51.5123 143.751 51.47C144.932 50.3317 145.829 48.9327 146.372 47.385C146.627 46.7237 146.845 46.049 147.027 45.364C146.986 45.321 146.904 45.407 146.781 45.45C146.013 45.6928 145.211 45.8086 144.406 45.793C143.88 45.7384 143.359 45.6381 142.85 45.493L142.481 45.365L142.276 45.065C141.7 44.1664 141.18 43.233 140.72 42.27L140.52 41.841H141.257L141.134 41.541L140.97 41.241L141.093 41.155C141.138 41.1267 141.176 41.0888 141.204 41.044C141.233 40.9992 141.251 40.9486 141.257 40.896C141.257 40.81 141.257 40.767 141.297 40.767C141.546 40.8083 141.792 40.8657 142.034 40.939C142.236 40.9862 142.446 40.9862 142.648 40.939C144.138 40.6421 145.575 40.1205 146.908 39.392L147.523 39.092L147.564 38.792C147.69 37.4003 147.924 36.0205 148.264 34.665C148.528 33.8465 148.638 32.9866 148.591 32.128C148.627 31.4623 148.56 30.795 148.391 30.15L148.309 29.806L148.432 29.677C148.636 29.4191 148.886 29.2006 149.168 29.032C149.248 28.962 149.343 28.911 149.445 28.883ZM159.971 51.672H159.889V52.188C159.918 53.2459 160.244 54.2742 160.831 55.155C160.953 55.327 161.117 55.542 161.158 55.628C161.196 55.6636 161.242 55.6899 161.291 55.7049C161.341 55.7198 161.394 55.7229 161.445 55.714C161.83 55.5728 162.19 55.3702 162.51 55.114C162.801 54.8578 163.062 54.5693 163.288 54.254L163.411 54.039L163.165 53.739C162.811 53.2726 162.398 52.8535 161.937 52.492C161.454 52.1513 160.911 51.9035 160.337 51.761C160.218 51.7197 160.096 51.6899 159.971 51.672ZM189.334 29.915C189.743 29.915 189.784 29.915 190.029 30.087C190.795 30.5929 191.463 31.234 192 31.979L192.286 32.409L192.486 32.323C193.216 32.1569 193.875 31.7658 194.37 31.205L194.616 30.947L194.902 31.162C195.481 31.6448 196.13 32.0363 196.827 32.323C197.564 32.667 197.77 33.183 197.564 34.301C197.523 34.5476 197.469 34.7917 197.4 35.032C197.2 35.5365 196.821 35.9498 196.336 36.193C195.189 36.751 194.984 36.88 194.779 37.225L194.656 37.396L194.856 37.655C195.29 38.3261 195.918 38.8493 196.656 39.155L196.82 39.198L197.52 38.598C198.42 37.824 199.486 36.877 199.609 36.748C199.858 36.5392 200.153 36.3922 200.47 36.319C201.78 35.975 203.17 36.791 203.95 38.383C204.014 38.5074 204.069 38.6365 204.114 38.769L204.155 38.942L203.746 39.457C203.541 39.757 203.131 40.274 202.886 40.619C202.589 41.0671 202.23 41.4711 201.82 41.819L201.166 42.419L201.616 42.805C201.861 43.02 202.271 43.45 202.558 43.751C203.787 45.041 204.401 46.116 204.401 46.976C204.401 47.707 204.073 48.095 203.05 48.654C202.302 49.0463 201.477 49.2667 200.633 49.299C199.927 49.3381 199.22 49.2504 198.545 49.04L198.053 48.911L197.111 49.126C194.981 49.642 192.811 50.116 190.476 50.502C189.739 50.631 188.92 50.802 188.715 50.846C187.428 51.196 186.255 51.8781 185.315 52.824C184.575 53.4383 184.069 54.2886 183.882 55.232C183.905 55.5736 183.989 55.9083 184.128 56.221C184.25 56.479 184.373 56.608 185.151 56.909C186.622 57.5484 188.216 57.8557 189.82 57.809C191.124 57.8132 192.421 57.6248 193.67 57.25C194.193 57.1477 194.668 56.8757 195.021 56.476L195.39 56.132L195.841 56.261C197.213 56.5948 198.488 57.2424 199.567 58.153C200.076 58.6111 200.543 59.1149 200.96 59.658C201.001 59.744 201.001 59.83 200.96 60.088C200.936 60.5076 200.762 60.9046 200.469 61.206C200.239 61.4488 199.959 61.6394 199.649 61.765C198.765 62.208 197.829 62.5402 196.864 62.754C192.374 63.5047 187.761 62.875 183.636 60.948C183.036 60.6461 182.505 60.2213 182.08 59.701C181.314 58.8602 180.741 57.8623 180.4 56.777C180.305 56.4416 180.264 56.0933 180.277 55.745C180.243 55.2591 180.328 54.7722 180.523 54.326C180.697 53.9738 180.95 53.6659 181.261 53.426C181.784 53.033 182.383 52.7543 183.021 52.608C183.994 52.3293 184.951 51.9992 185.889 51.619C188.986 50.4472 192.144 49.4427 195.349 48.61C196.036 48.4625 196.698 48.2159 197.314 47.878C197.714 47.6882 198.076 47.4258 198.38 47.104C198.469 47.0148 198.538 46.9067 198.58 46.7877C198.623 46.6687 198.638 46.5417 198.625 46.416C198.544 46.116 198.38 46.03 197.151 45.428C196.496 45.128 195.963 44.868 195.882 44.828C195.801 44.788 195.677 44.785 195.349 44.914C194.61 45.1749 193.886 45.4754 193.179 45.814C189.652 47.3944 186.027 48.7443 182.325 49.855L181.875 49.985L181.675 49.898C181.462 49.8169 181.256 49.7165 181.061 49.598C179.93 49.0575 179.051 48.103 178.604 46.932L178.521 46.632L178.604 46.416C178.831 45.8983 179.091 45.3956 179.382 44.911C179.731 44.3754 180.128 43.8733 180.569 43.411L180.733 43.239L180.933 43.539C181.14 43.8695 181.431 44.1392 181.776 44.3207C182.121 44.5022 182.508 44.5889 182.898 44.572C184.723 44.3348 186.512 43.8726 188.223 43.196C189.451 42.723 191.581 41.82 191.623 41.734C191.333 41.287 191.019 40.8564 190.682 40.444C190.189 39.756 189.782 39.244 189.739 39.197C189.082 39.3433 188.438 39.544 187.814 39.797C187.301 40.0389 186.743 40.1704 186.176 40.183C185.418 40.0424 184.711 39.7013 184.129 39.195C183.139 38.5102 182.347 37.5756 181.835 36.486L181.671 36.098L181.712 35.498L181.753 34.854L181.953 34.811C182.136 34.7383 182.329 34.6948 182.526 34.682C182.735 34.659 182.946 34.6882 183.14 34.767C183.889 35.0866 184.704 35.2197 185.515 35.155C186.247 35.0798 186.957 34.8606 187.604 34.51L188.014 34.295L187.973 34.122C187.852 33.1571 187.485 32.2394 186.908 31.457L186.663 31.157L187 30.9C187.484 30.4657 188.058 30.1427 188.68 29.954C188.896 29.9168 189.115 29.9037 189.334 29.915ZM205.634 29.829C205.945 29.9721 206.214 30.1945 206.412 30.474C206.538 30.6133 206.675 30.7427 206.821 30.861C207.435 31.2471 207.909 31.8198 208.173 32.495C208.274 32.756 208.309 33.0384 208.273 33.3161C208.237 33.5939 208.132 33.8582 207.968 34.085L207.845 34.258L207.559 34.172C206.851 33.9525 206.196 33.5862 205.639 33.0971C205.081 32.6079 204.633 32.0069 204.323 31.333L204.118 30.904L203.34 31.678L202.603 32.495L202.931 32.709C203.371 32.9304 203.761 33.2391 204.078 33.6163C204.395 33.9935 204.631 34.4313 204.773 34.903C204.784 35.3665 204.64 35.8203 204.364 36.193C204.283 36.3014 204.177 36.3891 204.055 36.4489C203.934 36.5087 203.8 36.5389 203.664 36.537C203.377 36.537 203.295 36.494 203.05 36.149C202.301 34.9267 201.277 33.8963 200.059 33.14L199.732 32.925L199.977 32.709C200.286 32.3988 200.69 32.2021 201.125 32.151C201.424 32.1464 201.718 32.0728 201.984 31.936C202.579 31.5102 203.046 30.9304 203.336 30.259L203.5 29.915L203.868 29.829C204.07 29.7737 204.275 29.7306 204.482 29.7C204.87 29.6304 205.271 29.6752 205.634 29.829Z" fill="black"/>
</g>
<g id="symbol">
<path id="Vector_4" d="M197.676 80.727C197.411 80.5417 197.124 80.3883 196.823 80.27C197.076 79.79 197.197 79.2512 197.174 78.709C197.174 77.637 196.656 77.093 195.636 77.093C195.024 77.0956 194.434 77.3186 193.974 77.721L194.017 76.916L194.04 76.481C194.053 76.3322 194.064 76.1832 194.072 76.034C194.072 75.916 194.025 75.716 193.715 75.716C193.621 75.716 192.827 75.74 192.715 75.748L192.622 75.755V76.066L192.689 76.089C192.818 76.134 192.857 76.196 192.864 76.368C192.864 76.414 192.87 76.837 192.873 77.306C192.824 77.2574 192.765 77.2196 192.7 77.195C192.635 77.1704 192.566 77.1595 192.497 77.163C192.099 77.2453 191.712 77.3759 191.346 77.552C190.967 77.714 190.865 77.758 190.865 77.947C190.933 78.2016 191.039 78.4445 191.179 78.668L191.219 78.748L191.558 78.625V78.56C191.566 78.4418 191.601 78.3271 191.66 78.2246C191.719 78.1221 191.801 78.0346 191.9 77.969C191.796 78.5487 191.67 79.1242 191.521 79.694C191.361 79.794 191.288 79.864 191.288 79.994C191.406 80.3081 191.555 80.6095 191.733 80.894L191.783 80.971L192.1 80.799V80.744C192.242 80.2312 192.515 79.7644 192.893 79.39C192.925 80.747 192.965 81.341 193.02 82.067C193.02 82.13 193.037 82.324 193.244 82.324C193.426 82.3037 193.598 82.2346 193.744 82.124L193.785 82.097V82.047C193.869 81.008 193.885 80.657 193.962 78.447C194.367 78.0736 194.88 77.838 195.427 77.774C195.896 77.774 195.988 78.088 195.988 78.631C195.994 79.0868 195.936 79.5413 195.816 79.981C195.628 79.955 195.438 79.943 195.248 79.945C194.331 79.945 193.92 80.379 193.92 80.808C193.92 81.219 194.32 81.508 194.898 81.508C195.363 81.5095 195.814 81.3481 196.173 81.052C196.424 81.1905 196.662 81.3498 196.886 81.528L196.911 81.547C196.964 81.6029 197.035 81.6384 197.111 81.647C197.165 81.6454 197.217 81.6276 197.26 81.5961C197.304 81.5645 197.337 81.5206 197.355 81.47L197.438 81.322C197.53 81.158 197.657 80.933 197.692 80.859L197.727 80.783L197.676 80.727ZM192.884 78.565L192.613 78.822L192.386 79.036C192.738 78.328 192.818 78.165 192.886 78.021C192.883 78.265 192.884 78.467 192.884 78.565ZM195.444 80.638C195.296 80.7648 195.106 80.8315 194.912 80.825C194.842 80.825 194.771 80.795 194.771 80.738C194.771 80.619 194.977 80.574 195.106 80.574C195.221 80.5782 195.335 80.5997 195.444 80.638ZM201.67 81.361C199.686 81.361 199.585 80.791 199.585 80.676C199.585 80.6171 199.6 80.5591 199.627 80.5069C199.654 80.4547 199.694 80.4098 199.742 80.376L199.823 80.313L199.51 79.939L199.439 79.977C199.055 80.177 198.577 80.429 198.577 80.905C198.577 80.951 198.605 82.039 201.064 82.039C201.349 82.0479 201.634 82.0142 201.909 81.939L201.947 81.928L202.3 81.316L202.1 81.34C201.957 81.3553 201.814 81.3623 201.67 81.361ZM199.387 77.51C199.37 77.5179 199.353 77.5269 199.337 77.537L199.207 77.622L199.579 77.858L199.627 77.836C199.82 77.7511 200.021 77.6858 200.227 77.641C200.552 77.576 200.65 77.556 200.65 77.387C200.65 77.348 200.527 76.782 200.23 76.782C200.206 76.7826 200.182 76.7846 200.158 76.788H200.114C199.939 76.8314 199.759 76.8539 199.578 76.855C199.368 76.8744 199.159 76.8145 198.991 76.687L198.904 76.609L198.724 76.885L198.692 76.949L198.731 77.004C198.887 77.2409 199.118 77.419 199.387 77.51Z" fill="black"/>
<path id="Vector_5" d="M202.723 77.021C202.426 77.1959 202.115 77.3467 201.793 77.472C201.485 76.572 201.446 76.465 201.326 76.188L201.307 76.144C201.207 75.912 201.174 75.844 201.023 75.818C200.872 75.792 200.182 75.771 199.889 75.759L199.717 75.752L199.632 76.134L199.72 76.161C200.241 76.322 200.547 76.609 200.844 77.776C200.183 78.0225 199.49 78.1747 198.786 78.228C198.7 78.2313 198.614 78.2151 198.535 78.1804C198.457 78.1458 198.387 78.0937 198.331 78.028L198.275 77.966L198.065 78.095L197.998 78.147L198.027 78.225C198.116 78.463 198.388 79.19 198.827 79.19C199.595 79.0591 200.344 78.8338 201.056 78.519C201.115 78.7823 201.152 79.0498 201.168 79.319C201.168 79.49 201.127 79.497 201.068 79.508C200.735 79.5487 200.404 79.6065 200.077 79.681L199.958 79.711L200.166 80.14L200.248 80.115C200.41 80.0685 200.579 80.0462 200.748 80.049C200.959 80.037 201.169 80.0916 201.348 80.205C201.359 80.214 201.38 80.235 201.405 80.259C201.547 80.395 201.588 80.43 201.644 80.43C201.803 80.4033 201.953 80.3384 202.082 80.241C202.169 80.1767 202.237 80.0908 202.28 79.9918C202.323 79.8928 202.339 79.7842 202.327 79.677C202.287 79.1361 202.172 78.6034 201.986 78.094L202.134 78.033C202.227 77.9966 202.318 77.9569 202.408 77.914C202.448 77.8978 202.483 77.8714 202.509 77.8376C202.536 77.8037 202.553 77.7635 202.559 77.721C202.571 77.6386 202.605 77.561 202.658 77.4966C202.711 77.4323 202.78 77.3837 202.859 77.356L202.93 77.321L202.841 76.948L202.723 77.021Z" fill="black"/>
<path id="Vector_6" d="M203.754 75.5C203.425 75.5133 203.11 75.6385 202.861 75.855C202.866 75.7792 202.843 75.7041 202.795 75.645C202.772 75.6242 202.746 75.6081 202.717 75.5978C202.688 75.5875 202.658 75.5831 202.627 75.585C202.457 75.6167 202.29 75.6622 202.127 75.721C202.057 75.7426 201.987 75.7633 201.917 75.783L201.827 75.807L201.881 76.096L201.956 76.104C202.016 76.109 202.029 76.122 202.042 76.16C202.062 76.219 202.134 76.547 202.181 76.76L202.234 76.996L202.262 77.114L202.826 76.86V76.798C202.826 76.703 202.833 76.637 202.837 76.571C202.841 76.505 202.844 76.446 202.847 76.358C203.034 76.227 203.139 76.158 203.196 76.122C203.151 76.309 203.006 76.822 202.95 76.979L202.902 77.115L203.447 77.103L203.476 77.062C204.092 76.188 204.171 75.953 204.171 75.846C204.173 75.636 204.008 75.5 203.754 75.5Z" fill="black"/>
<path id="Vector_7" d="M206.141 83.137C206.113 82.7554 206.062 82.3757 205.99 82C206.197 80.2 205.71 79.282 205.808 77.416C205.808 76.729 205.787 76.124 205.772 75.539C205.772 75.218 205.762 74.904 205.756 74.586C205.756 74.11 205.756 73.631 205.764 73.128L204.492 73.092C204.35 73.1512 204.202 73.1944 204.05 73.221C203.906 73.2531 203.76 73.2722 203.613 73.278C203.279 73.297 202.871 73.278 202.442 73.263C201.646 73.1819 200.844 73.1984 200.052 73.312C199.258 73.368 198.828 73.546 199.433 73.622C198.333 73.64 198.619 73.443 197.702 73.522L198.011 73.367C197.672 73.3001 197.326 73.2699 196.98 73.277L196.534 73.434C195.444 73.259 194.826 73.569 193.643 73.46C194.414 73.576 193.29 73.551 193.376 73.679C193.196 73.617 192.482 73.586 192.726 73.539C191.897 73.6297 191.061 73.6297 190.232 73.539L189.822 73.609C189.54 73.6465 189.256 73.6559 188.972 73.637C188.952 73.973 188.905 74.303 188.886 74.705C188.915 74.74 188.944 74.773 188.973 74.805C189.025 75.2753 189.011 75.7505 188.932 76.217C188.94 77.3213 189.023 78.4238 189.179 79.517C189.088 80.547 189.338 80.099 189.396 81.03C189.415 81.6888 189.398 82.3482 189.343 83.005C189.242 82.4093 189.176 81.8083 189.143 81.205C189.063 81.536 189.055 79.742 188.943 80.513C189.008 81.1346 189.042 81.759 189.043 82.384L189.061 84.357C189.567 84.3521 190.073 84.3204 190.576 84.262C190.463 84.499 192.476 84.402 193.144 84.37L193.187 84.434C193.826 84.4775 194.468 84.4668 195.106 84.402C196.14 84.3493 197.176 84.3754 198.206 84.48C199.401 84.5928 200.606 84.508 201.773 84.229C200.108 84.021 198.544 84.367 197.309 83.981C198.019 84.0367 198.733 83.9889 199.429 83.839L198.961 83.761L199.342 83.712C199.147 83.629 199.651 83.557 199.593 83.472H198.209C198.952 83.546 198.462 83.64 198.245 83.729L197.531 83.698C197.697 83.738 198.137 83.773 197.618 83.825C197.289 83.8366 196.959 83.8276 196.631 83.798L197.199 83.617C196.327 83.76 195.67 83.407 194.799 83.55L194.534 83.361L193.711 83.375L193.804 83.309L192.817 83.282C192.283 83.313 192.204 83.399 192.11 83.465C191.786 83.49 191.46 83.49 191.136 83.465L191.614 83.35L191.173 83.314C191.473 83.352 190.805 83.385 190.697 83.429L190.161 83.415C190.1 83.415 190.125 83.408 190.109 83.402C190.093 83.396 190.088 83.371 190.109 83.322C190.101 83.3307 190.091 83.3376 190.08 83.342C190.069 83.336 190.08 83.306 190.086 83.298V83.291L190.079 83.235C190.069 83.166 190.05 83.123 190.017 83.115C190.105 81.945 190.106 80.699 190.109 79.587L190.016 79.098C190.062 78.0019 190.044 76.904 189.962 75.81L190 75.9L189.881 75.151L189.896 74.945L189.903 74.787C189.906 74.7604 189.906 74.7336 189.903 74.707L189.861 74.52C189.906 74.5057 189.953 74.4989 190 74.5C190.034 74.5007 190.067 74.5044 190.1 74.511L190.125 74.517C190.143 74.5216 190.161 74.524 190.18 74.524L190.374 74.542C191.15 74.6453 191.94 74.5439 192.665 74.248C193.324 74.2108 193.984 74.2285 194.64 74.301L194.273 74.372L194.741 74.45C195.549 74.415 195.593 74.478 196.646 74.397C198.088 74.48 197.87 74.163 198.482 74.046L199.861 74.237L199.831 74.195C200.646 73.967 200.457 74.095 202.391 74.089L202.303 73.962C202.892 74.0086 203.484 73.9918 204.07 73.912C204.258 73.912 204.593 73.959 204.909 73.991C204.892 74.191 204.88 74.378 204.882 74.552C204.883 74.6372 204.888 74.7224 204.898 74.807C204.906 74.9079 204.921 75.0081 204.942 75.107C204.96 76.2585 205.036 77.4083 205.17 78.552C205.075 79.31 205.298 79.852 205.087 79.995V79.858L204.877 80.14L205.027 80.174C205.029 80.6788 204.972 81.1821 204.859 81.674L205.133 82.733C205.115 82.4545 205.117 82.1751 205.141 81.897L205.099 81.926C205.075 81.5054 205.082 81.0835 205.121 80.664L205.17 81.046C205.206 80.607 205.276 80.973 205.299 81.096C205.228 81.976 205.374 81.737 205.406 82.408C205.388 82.56 205.371 82.848 205.326 82.741C205.354 83.141 205.243 84.183 205.393 84.217L205.372 84.296C205.735 83.9922 206.002 83.5896 206.141 83.137Z" fill="black"/>
</g>
</g>
</svg>
